<svg width="57" height="52" viewBox="0 0 57 52" fill="none" xmlns="http://www.w3.org/2000/svg">
<path d="M35.6672 20.7991C34.9835 21.1098 34.2999 21.2963 33.492 21.4206C34.2378 20.9234 34.8592 20.2398 35.17 19.3697C34.4242 19.8047 33.6163 20.1155 32.8084 20.3019C32.1247 19.5561 31.1304 19.1211 30.0739 19.1211C28.023 19.1211 26.2828 20.7991 26.2828 22.9121C26.2828 23.2228 26.345 23.4714 26.4071 23.7822C23.2998 23.6579 20.5031 22.1042 18.6387 19.8669C18.3279 20.3019 18.1415 20.9234 18.1415 21.607C18.1415 22.9121 18.8251 24.0929 19.8195 24.7144C19.198 24.7144 18.6387 24.5279 18.1415 24.2172V24.2794C18.1415 26.0816 19.4466 27.6353 21.1867 27.9461C20.876 28.0082 20.5653 28.0704 20.1924 28.0704C19.9438 28.0704 19.6952 28.0704 19.5087 28.0082C20.0059 29.4998 21.3732 30.6184 23.0512 30.6184C21.7461 31.6128 20.1302 32.2343 18.3901 32.2343C18.0793 32.2343 17.7686 32.2343 17.52 32.1721C19.0116 33.3529 21.0003 33.9744 23.1133 33.9744C30.0117 33.9744 33.8027 28.2568 33.8027 23.285V22.7878C34.5485 22.2285 35.17 21.607 35.6672 20.7991Z" fill="white"/>
</svg>
