<svg width="309" height="103" viewBox="0 0 309 103" fill="none" xmlns="http://www.w3.org/2000/svg">
<path d="M41.3425 12.5009C44.4905 4.01108 51.6395 -0.809831 58.8942 0.680606C66.3879 2.22038 70.6857 9.72002 69.6266 19.1767C68.3279 30.7723 64.3347 40.3272 60.069 47.5888C63.3888 47.7621 66.6898 48.9661 69.3092 51.5732C71.9602 54.2117 73.5342 57.9047 74.07 62.3515C74.4562 65.5577 74.1906 68.9699 73.7995 72.1093C73.6012 73.7006 73.3594 75.3022 73.1286 76.8261C72.8945 78.3714 72.672 79.835 72.4938 81.249C72.1296 84.1393 72.0067 86.4363 72.2536 88.1972C72.4904 89.8855 72.9879 90.5587 73.4479 90.9101C74.2459 91.5195 75.6917 92.0798 77.9743 92.2831C80.203 92.4816 82.8599 92.3049 85.6803 91.8046C89.6917 91.0931 93.6354 89.7994 96.6794 88.3886C93.5429 83.8735 92.2442 78.3932 92.2311 73.1933C92.2131 65.9541 94.6537 58.4161 99.1237 53.2841C105.08 46.4459 113.685 44.6464 120.459 47.6552C123.838 49.1567 126.665 51.8394 128.24 55.4863C129.817 59.1377 130.01 63.4422 128.709 68.0195C125.9 77.8957 118.938 85.0288 112.338 89.5761C120.844 93.2601 134.535 93.4936 147.612 79.9023C146.706 75.4914 146.481 71.2607 146.551 68.1328C146.553 68.0827 146.556 68.033 146.558 67.9833C146.554 67.899 146.551 67.814 146.551 67.7285C146.551 56.2354 147.187 48.1402 150.199 33.079C152.377 22.1879 155.991 13.5979 160.46 8.09565C164.859 2.67777 171.262 -0.850415 177.896 2.34369C183.888 5.22889 185.382 11.8309 185.348 18.0732C185.313 24.5994 183.649 32.8333 181.081 42.0156C176.736 57.5489 163.92 74.7599 158.271 81.8837L158.12 82.0644C158.007 82.1924 157.888 82.3113 157.764 82.4238C157.997 83.0875 158.253 83.7392 158.534 84.373C160.772 89.4227 164.246 92.7502 170.051 92.8954C177.996 93.0939 184.998 89.5101 190.938 84.4794C192.413 83.2307 193.799 81.9108 195.094 80.5673C194.893 79.877 194.709 79.1747 194.544 78.4609C194.229 77.1782 193.991 75.8956 193.837 74.6288C193.014 68.8523 193.134 62.5615 193.711 56.3984C194.56 47.3124 196.457 37.991 198.269 30.0986C200.331 21.1208 203.57 13.6523 207.574 8.63666C211.466 3.76113 217.165 0.0791727 223.534 2.26459C225.557 2.9588 227.515 4.08029 229.104 5.88666C230.693 7.69211 231.677 9.91414 232.179 12.4365C233.143 17.2752 232.43 23.7424 230.299 32.2363C226.506 47.3614 217.582 65.1892 212.294 73.3857C212.253 73.4487 212.21 73.5099 212.167 73.5703C212.078 73.7479 211.979 73.9227 211.866 74.0917C210.335 76.3719 208.273 79.2986 205.713 82.3945C206.416 83.7825 207.232 85.1184 208.145 86.3495C211.18 90.4411 214.692 92.6364 217.916 92.7704C223.337 92.9955 227.934 91.1105 231.992 87.0331C236.181 82.8243 239.863 76.1895 242.861 66.9511C242.914 66.7863 242.977 66.6268 243.047 66.4726C243.074 66.2182 243.123 65.9624 243.196 65.7079C244.114 62.4948 246.226 57.8462 249.734 53.9111C253.294 49.9177 258.578 46.3752 265.643 46.3749C265.877 46.3749 266.108 46.3773 266.336 46.3808C266.401 46.378 266.467 46.3759 266.533 46.3759L267.401 46.3886C268.433 46.4207 269.42 46.5114 270.366 46.6533C272.006 46.8614 273.459 47.1797 274.778 47.5878C277.25 48.3531 279.057 49.3754 280.493 50.2402C282.001 51.1489 282.772 51.6558 283.779 52.0468C284.642 52.382 285.781 52.6532 287.638 52.6044C293.491 52.4504 298.437 48.257 300.057 46.207C301.624 44.2245 304.501 43.8873 306.484 45.454C308.466 47.0209 308.804 49.8982 307.237 51.8808C304.705 55.0843 297.483 61.4992 287.88 61.7519C287.585 61.7597 287.296 61.7601 287.012 61.7578C288.222 65.858 288.41 69.9814 288.132 73.0869C288.005 77.6087 286.728 84.2781 283.151 90.0859C279.409 96.1618 273.069 101.352 263.304 101.787C258.522 102 254.363 100.968 250.963 98.7558C247.576 96.5534 245.275 93.3998 243.821 89.9218C243.544 89.2596 243.296 88.5815 243.076 87.8906C241.653 89.962 240.124 91.835 238.477 93.4892C232.749 99.2443 225.715 102.253 217.537 101.914C210.45 101.62 204.683 97.0428 200.795 91.8007C200.222 91.0293 199.679 90.2268 199.165 89.4003C198.418 90.0992 197.648 90.7891 196.852 91.4628C189.934 97.3221 180.815 102.319 169.822 102.044C160.055 101.799 154.145 96.0424 150.837 89.4911C133.443 104.901 114.272 102.456 103.515 95.1503C99.1919 97.6463 93.1452 99.7748 87.279 100.815C83.9193 101.411 80.4192 101.687 77.1628 101.397C73.9602 101.112 70.5915 100.243 67.8942 98.1835C64.8592 95.8658 63.6255 92.566 63.1911 89.4687C62.7669 86.4437 63.0323 83.1396 63.4147 80.1044C63.6099 78.5558 63.8507 76.9741 64.0807 75.455C64.3141 73.9146 64.5374 72.4302 64.7184 70.9775C65.0858 68.0286 65.2341 65.5142 64.985 63.4462C64.6285 60.4873 63.696 58.8975 62.8542 58.0595C62.0379 57.2471 60.9453 56.7767 59.4987 56.7206C56.3733 56.5997 52.0812 58.5146 49.0026 62.163C46.2489 65.4267 43.7142 71.5926 41.6579 78.7607C39.6571 85.7354 38.2952 92.9669 37.5739 97.7685C37.1984 100.267 34.8687 101.989 32.3698 101.613C29.8709 101.238 28.1498 98.9081 28.5251 96.4091C29.1546 92.2181 30.2445 86.271 31.8122 80.1201C29.2224 82.0627 26.3826 84.0456 23.5837 85.9247C17.4058 90.0723 11.0267 93.985 7.02019 96.3329C4.84001 97.6106 2.03719 96.8792 0.759448 94.6992C-0.517933 92.519 0.213263 89.7161 2.39324 88.4384C6.26696 86.1683 12.484 82.353 18.4821 78.3261C24.5941 74.2227 30.0904 70.1537 32.8132 67.3417C33.0961 67.0495 33.4091 66.8039 33.7419 66.6035C34.4815 59.5875 35.2346 51.459 36.0944 43.4413C36.7641 37.196 37.4968 31.0619 38.3327 25.7529C39.1547 20.5321 40.1226 15.7911 41.3425 12.5009ZM265.643 55.5263C261.931 55.5265 258.953 57.3218 256.565 60.0009C254.125 62.7382 252.602 66.0966 251.995 68.2216C251.971 68.3056 251.944 68.3882 251.916 68.4697C251.908 68.7789 251.87 69.0922 251.797 69.4052C250.332 75.6719 250.427 81.9954 252.264 86.3915C253.152 88.5153 254.39 90.0695 255.952 91.0849C257.499 92.0909 259.698 92.7871 262.897 92.6445C269.096 92.368 272.903 89.2751 275.359 85.287C277.934 81.1066 278.917 76.0281 278.989 72.7138L278.993 72.5439L279.009 72.3749C279.311 69.2338 278.874 64.7498 276.977 61.2499C275.54 58.5976 273.228 56.3699 269.114 55.7197C268.132 55.5996 266.988 55.5263 265.643 55.5263ZM116.743 56.0185C113.969 54.7864 109.585 55.2061 106.024 59.2949C103.249 62.4804 101.369 67.7557 101.382 73.1708C101.393 77.2664 102.472 80.9507 104.575 83.6786C110.686 80.1193 117.508 73.9519 119.907 65.5165C120.726 62.6353 120.452 60.5343 119.84 59.1152C119.225 57.6919 118.137 56.6377 116.743 56.0185ZM220.563 10.9208C219.688 10.6205 217.696 10.6251 214.725 14.3456C211.866 17.9269 209.068 23.9671 207.189 32.1474C205.405 39.9172 203.615 48.7718 202.822 57.2499C202.347 62.3308 202.247 67.1023 202.655 71.3281C203.239 70.5029 203.779 69.7193 204.268 68.9902C204.293 68.953 204.32 68.917 204.345 68.8808C204.422 68.7259 204.508 68.5734 204.604 68.4247C209.484 60.8603 217.927 43.9501 221.424 30.0097C223.487 21.7834 223.753 16.9756 223.205 14.2246C222.951 12.9527 222.557 12.2996 222.234 11.9326C221.912 11.5669 221.426 11.2168 220.563 10.9208ZM173.926 10.5888C172.934 10.1111 170.821 9.85229 167.563 13.8642C164.374 17.7919 161.189 24.793 159.173 34.873C156.276 49.3575 155.702 56.8522 155.702 67.7285C155.702 67.817 155.698 67.9049 155.693 67.9921C155.699 68.107 155.703 68.2229 155.7 68.3398C155.687 68.9056 155.687 69.5073 155.701 70.1376C161.66 61.958 169.331 50.0477 172.267 39.5507C174.783 30.5581 176.169 23.2855 176.197 18.0234C176.227 12.4779 174.798 11.0084 173.926 10.5888ZM57.0524 9.64447C55.4392 9.31321 51.9746 10.1483 49.9225 15.6826C49.0454 18.0483 48.187 22.004 47.3727 27.1757C46.5722 32.2597 45.8588 38.2172 45.194 44.4169C44.8621 47.5123 44.5408 50.6807 44.2272 53.8261C49.339 48.1651 58.5521 35.8345 60.5319 18.1581C61.252 11.7276 58.4266 9.92683 57.0524 9.64447Z" fill="white"/>
</svg>
