<svg width="1200" height="630" viewBox="0 0 1200 630" fill="none" xmlns="http://www.w3.org/2000/svg">
<g filter="url(#filter0_n_87_5584)">
<g clip-path="url(#clip0_87_5584)">
<path d="M0 34.7639C0 15.5644 15.5643 0 34.7639 0H1165.24C1184.44 0 1200 15.5643 1200 34.7639V595.236C1200 614.436 1184.44 630 1165.24 630H34.7639C15.5644 630 0 614.436 0 595.236V34.7639Z" fill="#1E1E1E"/>
<path d="M140.556 197.334C128.957 289.285 83.8206 508.291 95.5562 579.001M130.001 607.889C207.223 609.001 1061.67 607.889 1070 607.889M909.445 181.778C948.784 240.076 1075.36 473.192 1103.83 564.001" stroke="#F95F4A" stroke-width="1.11111"/>
<path d="M130 537.333C149.637 537.334 165.556 553.252 165.556 572.889C165.556 592.526 149.637 608.445 130 608.445C110.364 608.445 94.4448 592.526 94.4448 572.889C94.4448 553.252 110.364 537.333 130 537.333ZM130 557.923C121.732 557.923 115.03 564.626 115.03 572.894C115.03 581.162 121.732 587.865 130 587.865C138.268 587.865 144.971 581.162 144.971 572.894C144.971 564.626 138.268 557.924 130 557.923Z" fill="#FEFCD9"/>
<path d="M1070 537.333C1089.64 537.333 1105.56 553.252 1105.56 572.889C1105.56 592.526 1089.64 608.445 1070 608.445C1050.36 608.445 1034.45 592.526 1034.45 572.889C1034.45 553.252 1050.36 537.334 1070 537.333ZM1070 557.923C1061.73 557.923 1055.03 564.626 1055.03 572.894C1055.03 581.162 1061.73 587.865 1070 587.865C1078.27 587.865 1084.97 581.162 1084.97 572.894C1084.97 564.626 1078.27 557.924 1070 557.923Z" fill="#FEFCD9"/>
<path d="M270.425 463.445H938.448C953.936 463.445 967.453 473.946 971.283 488.953L1006.74 627.89H194.485L238.055 487.302C242.452 473.116 255.573 463.445 270.425 463.445Z" stroke="#FEFCD9" stroke-width="3.33333"/>
<circle cx="316.669" cy="577.333" r="29.4444" stroke="#FEFCD9" stroke-width="3.33333"/>
<circle cx="884.447" cy="577.333" r="29.4444" stroke="#FEFCD9" stroke-width="3.33333"/>
<rect x="411.669" y="547.889" width="38.8889" height="38.8889" rx="5" stroke="#FEFCD9" stroke-width="3.33333"/>
<path d="M585.558 583.445H614.447C617.208 583.445 619.447 585.683 619.447 588.445V606.778H580.558V588.445C580.558 585.683 582.796 583.445 585.558 583.445Z" fill="#FEFCD9" stroke="#FEFCD9" stroke-width="3.33333"/>
<rect x="750.558" y="547.889" width="38.8889" height="38.8889" rx="5" stroke="#FEFCD9" stroke-width="3.33333"/>
<g clip-path="url(#clip1_87_5584)">
<path d="M600 476.224C611.046 476.224 620 485.178 620 496.224C620 507.269 611.046 516.224 600 516.224C588.955 516.224 580 507.269 580 496.224C580 485.178 588.955 476.224 600 476.224ZM601.633 484.255C601.271 482.476 598.729 482.476 598.367 484.255L596.84 491.763C596.707 492.418 596.195 492.93 595.539 493.063L588.031 494.591C586.252 494.953 586.252 497.495 588.031 497.856L595.539 499.384C596.195 499.517 596.707 500.029 596.84 500.685L598.367 508.192C598.729 509.972 601.271 509.972 601.633 508.192L603.16 500.685C603.294 500.029 603.806 499.517 604.461 499.384L611.969 497.856C613.748 497.495 613.748 494.953 611.969 494.591L604.461 493.063C603.806 492.93 603.294 492.418 603.16 491.763L601.633 484.255Z" fill="#FEFCD9"/>
</g>
<g clip-path="url(#clip2_87_5584)" filter="url(#filter1_n_87_5584)">
<path d="M50.0005 28C61.0462 28 70.0005 36.9543 70.0005 48C70.0005 59.0457 61.0462 68 50.0005 68C38.9548 68 30.0005 59.0457 30.0005 48C30.0005 36.9543 38.9548 28 50.0005 28ZM51.6333 36.0312C51.2714 34.2519 48.7295 34.2519 48.3677 36.0312L46.8403 43.5391C46.707 44.1944 46.1948 44.7065 45.5396 44.8398L38.0317 46.3672C36.2524 46.7291 36.2524 49.2709 38.0317 49.6328L45.5396 51.1602C46.1948 51.2935 46.707 51.8056 46.8403 52.4609L48.3677 59.9688C48.7295 61.7481 51.2714 61.7481 51.6333 59.9688L53.1606 52.4609C53.294 51.8056 53.8061 51.2935 54.4614 51.1602L61.9692 49.6328C63.7486 49.2709 63.7486 46.7291 61.9692 46.3672L54.4614 44.8398C53.8061 44.7065 53.294 44.1944 53.1606 43.5391L51.6333 36.0312Z" fill="#F95F4A"/>
</g>
<g clip-path="url(#clip3_87_5584)" filter="url(#filter2_n_87_5584)">
<path d="M50 559.555C61.0457 559.555 70 568.509 70 579.555C70 590.601 61.0457 599.555 50 599.555C38.9543 599.555 30 590.601 30 579.555C30 568.509 38.9543 559.555 50 559.555ZM51.6328 567.586C51.2709 565.807 48.7291 565.807 48.3672 567.586L46.8398 575.094C46.7065 575.75 46.1944 576.262 45.5391 576.395L38.0312 577.922C36.2519 578.284 36.2519 580.826 38.0312 581.188L45.5391 582.715C46.1944 582.849 46.7065 583.361 46.8398 584.016L48.3672 591.524C48.7291 593.303 51.2709 593.303 51.6328 591.524L53.1602 584.016C53.2935 583.361 53.8056 582.849 54.4609 582.715L61.9688 581.188C63.7481 580.826 63.7481 578.284 61.9688 577.922L54.4609 576.395C53.8056 576.262 53.2935 575.75 53.1602 575.094L51.6328 567.586Z" fill="#F95F4A"/>
</g>
<g clip-path="url(#clip4_87_5584)" filter="url(#filter3_n_87_5584)">
<path d="M1150 28C1161.04 28 1170 36.9543 1170 48C1170 59.0457 1161.04 68 1150 68C1138.95 68 1130 59.0457 1130 48C1130 36.9543 1138.95 28 1150 28ZM1151.63 36.0312C1151.27 34.2519 1148.73 34.2519 1148.37 36.0312L1146.84 43.5391C1146.7 44.1944 1146.19 44.7065 1145.54 44.8398L1138.03 46.3672C1136.25 46.7291 1136.25 49.2709 1138.03 49.6328L1145.54 51.1602C1146.19 51.2935 1146.7 51.8056 1146.84 52.4609L1148.37 59.9688C1148.73 61.7481 1151.27 61.7481 1151.63 59.9688L1153.16 52.4609C1153.29 51.8056 1153.8 51.2935 1154.46 51.1602L1161.97 49.6328C1163.75 49.2709 1163.75 46.7291 1161.97 46.3672L1154.46 44.8398C1153.8 44.7065 1153.29 44.1944 1153.16 43.5391L1151.63 36.0312Z" fill="#F95F4A"/>
</g>
<g clip-path="url(#clip5_87_5584)" filter="url(#filter4_n_87_5584)">
<path d="M1150 559.555C1161.04 559.555 1170 568.509 1170 579.555C1170 590.601 1161.04 599.555 1150 599.555C1138.95 599.555 1130 590.601 1130 579.555C1130 568.509 1138.95 559.555 1150 559.555ZM1151.63 567.586C1151.27 565.807 1148.73 565.807 1148.37 567.586L1146.84 575.094C1146.7 575.75 1146.19 576.262 1145.54 576.395L1138.03 577.922C1136.25 578.284 1136.25 580.826 1138.03 581.188L1145.54 582.715C1146.19 582.849 1146.7 583.361 1146.84 584.016L1148.37 591.524C1148.73 593.303 1151.27 593.303 1151.63 591.524L1153.16 584.016C1153.29 583.361 1153.8 582.849 1154.46 582.715L1161.97 581.188C1163.75 580.826 1163.75 578.284 1161.97 577.922L1154.46 576.395C1153.8 576.262 1153.29 575.75 1153.16 575.094L1151.63 567.586Z" fill="#F95F4A"/>
</g>
<path d="M365.565 345.516C365.565 320.71 385.16 311.538 418.93 310.079C438.525 309.245 459.37 309.245 458.953 299.031C458.745 293.611 453.742 288.191 433.522 288.191C411.842 288.191 406.839 293.194 405.172 301.532H368.9C372.652 272.14 399.752 261.508 434.355 261.508C467.5 261.508 495.642 269.847 495.642 314.039V374.909H458.953V369.28C458.953 365.945 459.787 363.027 461.246 360.108C462.914 356.565 464.79 353.229 462.497 352.187C459.787 350.936 458.953 353.646 458.119 354.897C449.99 366.57 435.606 378.244 410.591 378.244C381.616 378.244 365.565 363.861 365.565 345.516ZM458.953 319.876C452.491 325.296 441.235 328.84 423.516 330.299C410.175 331.341 402.253 333.843 402.253 343.223C402.253 351.562 411.008 356.565 426.643 354.063C439.358 351.979 458.745 340.93 458.953 319.876ZM507.454 319.876C507.454 287.774 532.677 261.508 577.078 261.508C616.268 261.508 638.989 284.439 640.866 308.411L604.594 308.62C602.093 299.656 593.129 291.526 577.495 291.526C557.066 291.526 544.142 304.45 544.142 319.876C544.142 335.302 557.066 348.226 577.495 348.226C593.129 348.226 602.093 339.888 604.594 330.924L640.866 331.133C638.989 355.105 616.685 378.244 577.078 378.244C533.511 378.244 507.454 351.979 507.454 319.876ZM793.925 261.508C813.103 261.508 831.03 271.931 831.03 306.535V374.909H794.341V314.873C794.341 298.197 790.381 291.526 779.75 291.526C770.161 291.526 759.321 306.118 759.321 325.713V374.909H722.633V317.375C722.633 300.698 717.213 291.526 707.415 291.526C695.116 291.526 687.612 309.037 687.612 330.299V374.909H650.924V264.844H687.612V269.013C687.612 273.182 686.361 276.309 684.485 279.644C682.817 282.771 681.567 285.689 684.068 286.732C686.57 287.774 687.612 285.481 688.446 284.23C696.784 271.723 707.415 261.508 721.799 261.508C737.433 261.508 747.647 269.847 751.399 282.146C752.025 284.23 753.484 285.273 755.569 285.273C757.653 285.273 758.487 284.439 759.738 282.563C769.118 269.221 781 261.508 793.925 261.508Z" fill="#F95F4A"/>
<g style="mix-blend-mode:plus-lighter">
<path d="M316.728 404.989H323.064V412.477C323.064 413.017 322.956 413.557 322.668 414.061C322.344 414.637 321.876 415.249 322.344 415.501C322.74 415.717 323.028 415.213 323.208 414.997C325.044 412.873 327.24 411.325 330.696 411.325C336.816 411.325 340.344 415.789 340.344 421.405C340.344 427.021 336.816 431.485 330.696 431.485C327.276 431.485 325.044 429.973 323.208 427.777C323.064 427.597 322.812 427.237 322.488 427.345C321.948 427.525 322.272 428.101 322.632 428.677C322.956 429.181 323.064 429.685 323.064 430.225V430.909H316.728V404.989ZM328.716 426.301C332.352 426.301 334.008 424.033 334.008 421.405C334.008 418.777 332.352 416.509 328.716 416.509C325.26 416.509 323.064 418.777 323.064 421.405C323.064 424.033 325.26 426.301 328.716 426.301ZM364.807 420.829C364.807 421.369 364.771 422.449 364.663 422.989H348.103C348.643 425.293 350.695 426.733 353.683 426.733C355.987 426.733 357.427 425.977 358.003 424.573H364.375C363.511 428.173 360.019 431.485 353.719 431.485C345.907 431.485 341.767 427.021 341.767 421.405C341.767 415.501 346.087 411.325 353.575 411.325C359.263 411.325 364.807 414.277 364.807 420.829ZM353.755 415.933C350.335 415.933 348.859 417.337 348.283 419.245H358.579C358.219 417.049 356.383 415.933 353.755 415.933ZM366.096 421.405C366.096 415.861 370.452 411.325 378.12 411.325C384.888 411.325 388.812 415.285 389.136 419.425L382.872 419.461C382.44 417.913 380.892 416.509 378.192 416.509C374.664 416.509 372.432 418.741 372.432 421.405C372.432 424.069 374.664 426.301 378.192 426.301C380.892 426.301 382.44 424.861 382.872 423.313L389.136 423.349C388.812 427.489 384.96 431.485 378.12 431.485C370.596 431.485 366.096 426.949 366.096 421.405ZM390.283 425.833C390.283 421.549 393.667 419.965 399.499 419.713C402.883 419.569 406.483 419.569 406.411 417.805C406.375 416.869 405.511 415.933 402.019 415.933C398.275 415.933 397.411 416.797 397.123 418.237H390.859C391.507 413.161 396.187 411.325 402.163 411.325C407.887 411.325 412.747 412.765 412.747 420.397V430.909H406.411V429.937C406.411 429.361 406.555 428.857 406.807 428.353C407.095 427.741 407.419 427.165 407.023 426.985C406.555 426.769 406.411 427.237 406.267 427.453C404.863 429.469 402.379 431.485 398.059 431.485C393.055 431.485 390.283 429.001 390.283 425.833ZM406.411 421.405C405.295 422.341 403.351 422.953 400.291 423.205C397.987 423.385 396.619 423.817 396.619 425.437C396.619 426.877 398.131 427.741 400.831 427.309C403.027 426.949 406.375 425.041 406.411 421.405ZM423.535 431.485C418.675 431.485 415.363 428.821 415.363 423.421V411.901H421.699V420.829C421.699 425.113 422.959 426.301 425.659 426.301C428.719 426.301 431.491 423.025 431.491 418.633V411.901H437.827V430.909H431.491V430.009C431.491 429.145 431.635 428.533 431.959 427.957C432.283 427.381 432.643 426.733 432.175 426.553C431.743 426.373 431.563 426.769 431.383 427.021C430.015 428.929 427.459 431.485 423.535 431.485ZM439.853 424.285H446.117C446.153 425.761 447.017 427.021 450.905 427.021C454.109 427.021 455.405 426.409 455.405 425.437C455.405 424.249 453.677 423.961 449.321 423.673C440.969 423.097 440.429 419.497 440.429 417.517C440.429 414.313 443.597 411.325 450.869 411.325C457.025 411.325 460.877 413.413 461.165 417.949H454.901C454.829 416.545 454.001 415.789 450.761 415.789C447.845 415.789 446.765 416.329 446.765 417.265C446.765 417.913 447.161 418.525 451.445 418.741C458.429 419.101 461.741 420.973 461.741 425.077C461.741 428.713 458.141 431.485 450.761 431.485C443.345 431.485 440.105 428.749 439.853 424.285ZM485.921 420.829C485.921 421.369 485.885 422.449 485.777 422.989H469.217C469.757 425.293 471.809 426.733 474.797 426.733C477.101 426.733 478.541 425.977 479.117 424.573H485.489C484.625 428.173 481.133 431.485 474.833 431.485C467.021 431.485 462.881 427.021 462.881 421.405C462.881 415.501 467.201 411.325 474.689 411.325C480.377 411.325 485.921 414.277 485.921 420.829ZM474.869 415.933C471.449 415.933 469.973 417.337 469.397 419.245H479.693C479.333 417.049 477.497 415.933 474.869 415.933ZM512.983 411.901V416.797H506.647V424.141C506.647 425.941 506.719 426.013 508.375 426.013H512.983V430.909H505.927C502.111 430.909 500.311 429.649 500.311 425.077V416.797H495.703V411.901H500.311V406.717H506.647V411.901H512.983ZM536.862 420.829C536.862 421.369 536.826 422.449 536.718 422.989H520.158C520.698 425.293 522.75 426.733 525.738 426.733C528.042 426.733 529.482 425.977 530.058 424.573H536.43C535.566 428.173 532.074 431.485 525.774 431.485C517.962 431.485 513.822 427.021 513.822 421.405C513.822 415.501 518.142 411.325 525.63 411.325C531.318 411.325 536.862 414.277 536.862 420.829ZM525.81 415.933C522.39 415.933 520.914 417.337 520.338 419.245H530.634C530.274 417.049 528.438 415.933 525.81 415.933ZM538.15 421.405C538.15 415.861 542.506 411.325 550.174 411.325C556.942 411.325 560.866 415.285 561.19 419.425L554.926 419.461C554.494 417.913 552.946 416.509 550.246 416.509C546.718 416.509 544.486 418.741 544.486 421.405C544.486 424.069 546.718 426.301 550.246 426.301C552.946 426.301 554.494 424.861 554.926 423.313L561.19 423.349C560.866 427.489 557.014 431.485 550.174 431.485C542.65 431.485 538.15 426.949 538.15 421.405ZM577.219 411.325C582.079 411.325 585.391 413.989 585.391 419.389V430.909H579.055V421.981C579.055 417.697 577.795 416.509 575.095 416.509C572.035 416.509 569.263 419.785 569.263 424.177V430.909H562.927V404.989H569.263V412.801C569.263 413.665 569.119 414.277 568.795 414.853C568.471 415.429 568.111 416.077 568.579 416.257C569.011 416.437 569.191 416.041 569.371 415.789C570.739 413.881 573.295 411.325 577.219 411.325ZM602.286 411.325C607.146 411.325 610.458 413.989 610.458 419.389V430.909H604.122V421.981C604.122 417.697 602.862 416.509 600.162 416.509C597.102 416.509 594.33 419.785 594.33 424.177V430.909H587.994V411.901H594.33V412.801C594.33 413.665 594.186 414.277 593.862 414.853C593.538 415.429 593.178 416.077 593.646 416.257C594.078 416.437 594.258 416.041 594.438 415.789C595.806 413.881 598.362 411.325 602.286 411.325ZM623.997 411.325C631.341 411.325 635.805 415.861 635.805 421.405C635.805 426.949 631.341 431.485 623.997 431.485C616.653 431.485 612.189 426.949 612.189 421.405C612.189 415.861 616.653 411.325 623.997 411.325ZM623.997 426.301C627.597 426.301 629.469 424.069 629.469 421.405C629.469 418.741 627.597 416.509 623.997 416.509C620.397 416.509 618.525 418.741 618.525 421.405C618.525 424.069 620.397 426.301 623.997 426.301ZM643.9 404.989V430.909H637.564V404.989H643.9ZM657.466 411.325C664.81 411.325 669.274 415.861 669.274 421.405C669.274 426.949 664.81 431.485 657.466 431.485C650.122 431.485 645.658 426.949 645.658 421.405C645.658 415.861 650.122 411.325 657.466 411.325ZM657.466 426.301C661.066 426.301 662.938 424.069 662.938 421.405C662.938 418.741 661.066 416.509 657.466 416.509C653.866 416.509 651.994 418.741 651.994 421.405C651.994 424.069 653.866 426.301 657.466 426.301ZM670.443 420.973C670.443 415.429 673.899 411.325 680.091 411.325C683.547 411.325 685.923 412.837 687.579 414.997C687.723 415.177 687.939 415.537 688.227 415.429C688.767 415.213 688.443 414.637 688.119 414.061C687.831 413.557 687.723 413.017 687.723 412.477V411.901H694.059V429.613C694.059 435.589 689.199 438.397 682.323 438.397C675.303 438.397 671.667 436.057 671.019 431.773H677.211C677.571 433.177 679.011 433.933 682.323 433.933C686.463 433.933 687.723 432.241 687.723 429.937C687.723 429.397 687.831 428.893 688.155 428.389C688.551 427.777 688.839 427.237 688.371 427.021C687.975 426.841 687.759 427.237 687.579 427.453C685.923 429.613 683.511 430.621 680.091 430.621C673.899 430.621 670.443 426.517 670.443 420.973ZM682.071 425.437C685.527 425.437 687.723 423.385 687.723 420.973C687.723 418.561 685.527 416.509 682.071 416.509C678.435 416.509 676.779 418.561 676.779 420.973C676.779 423.385 678.435 425.437 682.071 425.437ZM704.381 431.233L695.201 411.901H702.185L706.793 423.313C707.081 424.033 707.081 424.681 707.081 425.329C707.081 425.689 707.153 426.085 707.657 426.085C708.161 426.085 708.197 425.689 708.233 425.329C708.305 424.681 708.269 424.033 708.557 423.313L712.985 411.901H719.969L710.105 433.105C708.593 436.381 706.721 437.821 703.409 437.821H697.505V432.925H700.169C702.905 432.925 703.661 433.033 704.165 431.773L704.381 431.233ZM755.037 411.325C758.349 411.325 761.445 413.125 761.445 419.101V430.909H755.109V420.541C755.109 417.661 754.425 416.509 752.589 416.509C750.933 416.509 749.061 419.029 749.061 422.413V430.909H742.725V420.973C742.725 418.093 741.789 416.509 740.097 416.509C737.973 416.509 736.677 419.533 736.677 423.205V430.909H730.341V411.901H736.677V412.621C736.677 413.341 736.461 413.881 736.137 414.457C735.849 414.997 735.633 415.501 736.065 415.681C736.497 415.861 736.677 415.465 736.821 415.249C738.261 413.089 740.097 411.325 742.581 411.325C745.281 411.325 747.045 412.765 747.693 414.889C747.801 415.249 748.053 415.429 748.413 415.429C748.773 415.429 748.917 415.285 749.133 414.961C750.753 412.657 752.805 411.325 755.037 411.325ZM763.185 425.833C763.185 421.549 766.569 419.965 772.401 419.713C775.785 419.569 779.385 419.569 779.313 417.805C779.277 416.869 778.413 415.933 774.921 415.933C771.177 415.933 770.313 416.797 770.025 418.237H763.761C764.409 413.161 769.089 411.325 775.065 411.325C780.789 411.325 785.649 412.765 785.649 420.397V430.909H779.313V429.937C779.313 429.361 779.457 428.857 779.709 428.353C779.997 427.741 780.321 427.165 779.925 426.985C779.457 426.769 779.313 427.237 779.169 427.453C777.765 429.469 775.281 431.485 770.961 431.485C765.957 431.485 763.185 429.001 763.185 425.833ZM779.313 421.405C778.197 422.341 776.253 422.953 773.193 423.205C770.889 423.385 769.521 423.817 769.521 425.437C769.521 426.877 771.033 427.741 773.733 427.309C775.929 426.949 779.277 425.041 779.313 421.405ZM803.796 411.901V416.797H797.46V424.141C797.46 425.941 797.532 426.013 799.188 426.013H803.796V430.909H796.74C792.924 430.909 791.124 429.649 791.124 425.077V416.797H786.516V411.901H791.124V406.717H797.46V411.901H803.796ZM821.339 411.901V416.797H815.003V424.141C815.003 425.941 815.075 426.013 816.731 426.013H821.339V430.909H814.283C810.467 430.909 808.667 429.649 808.667 425.077V416.797H804.059V411.901H808.667V406.717H815.003V411.901H821.339ZM845.218 420.829C845.218 421.369 845.182 422.449 845.074 422.989H828.514C829.054 425.293 831.106 426.733 834.094 426.733C836.398 426.733 837.838 425.977 838.414 424.573H844.786C843.922 428.173 840.43 431.485 834.13 431.485C826.318 431.485 822.178 427.021 822.178 421.405C822.178 415.501 826.498 411.325 833.986 411.325C839.674 411.325 845.218 414.277 845.218 420.829ZM834.166 415.933C830.746 415.933 829.27 417.337 828.694 419.245H838.99C838.63 417.049 836.794 415.933 834.166 415.933ZM853.435 415.753C854.875 413.233 857.359 411.613 861.931 411.613V417.445C856.711 417.085 853.291 419.281 853.291 424.105V430.909H846.955V411.901H853.291V413.053C853.291 413.701 853.075 414.349 852.787 414.925C852.499 415.501 852.283 416.149 852.823 416.257C853.147 416.329 853.291 416.005 853.435 415.753ZM862.221 424.285H868.485C868.521 425.761 869.385 427.021 873.273 427.021C876.477 427.021 877.773 426.409 877.773 425.437C877.773 424.249 876.045 423.961 871.689 423.673C863.337 423.097 862.797 419.497 862.797 417.517C862.797 414.313 865.965 411.325 873.237 411.325C879.393 411.325 883.245 413.413 883.533 417.949H877.269C877.197 416.545 876.369 415.789 873.129 415.789C870.213 415.789 869.133 416.329 869.133 417.265C869.133 417.913 869.529 418.525 873.813 418.741C880.797 419.101 884.109 420.973 884.109 425.077C884.109 428.713 880.509 431.485 873.129 431.485C865.713 431.485 862.473 428.749 862.221 424.285Z" fill="#E6E4C4"/>
</g>
<g style="mix-blend-mode:plus-lighter">
<path fill-rule="evenodd" clip-rule="evenodd" d="M590.874 32.5068C584.868 26.4977 575.132 26.4977 569.126 32.5068L536.504 65.1483C530.499 71.1575 530.499 80.9002 536.504 86.9093L569.126 119.551C575.132 125.56 584.868 125.56 590.874 119.551L623.496 86.9093C629.501 80.9002 629.501 71.1575 623.496 65.1483L590.874 32.5068ZM566.7 79.2006C566.694 80.3239 566.713 81.4537 566.83 82.577C566.85 82.7597 566.875 82.9423 566.9 83.1241C566.924 83.2976 566.948 83.4708 566.967 83.6419C566.873 83.7042 566.78 83.7001 566.686 83.6959C566.68 83.6957 566.675 83.6954 566.669 83.6952C566.651 83.6944 566.634 83.6938 566.616 83.6938H562.612C562.595 83.6938 562.578 83.6931 562.56 83.6924C562.526 83.6909 562.491 83.6895 562.457 83.6938C562.288 83.7133 562.236 83.6289 562.229 83.4666C562.218 83.1329 562.199 82.8015 562.181 82.4697C562.168 82.2465 562.156 82.0223 562.145 81.7979C562.141 81.7095 562.142 81.6211 562.144 81.5221C562.144 81.4684 562.145 81.4115 562.145 81.3498C561.982 81.4058 561.923 81.5057 561.868 81.5995C561.852 81.6253 561.837 81.6506 561.821 81.6745C561.165 82.6095 560.361 83.3497 559.264 83.7393C558.583 83.986 557.875 84.0769 557.161 84.0574C556.123 84.0315 555.104 83.8562 554.157 83.3887C552.807 82.7264 551.97 81.681 551.723 80.1811C551.704 80.0642 551.685 79.9473 551.581 79.8694V78.7007C551.696 78.6405 551.709 78.5297 551.722 78.4225C551.724 78.4101 551.725 78.3978 551.727 78.3857C551.728 78.3781 551.729 78.3705 551.73 78.363C551.964 76.993 552.729 75.9931 553.917 75.3113C554.851 74.7724 555.877 74.4932 556.934 74.3374C558.466 74.1101 560.004 74.0906 561.542 74.3179C561.853 74.3633 561.879 74.3438 561.847 74.0257C561.756 73.1426 561.353 72.4803 560.529 72.1038C560.14 71.9219 559.725 71.8116 559.296 71.7791C557.609 71.6557 555.954 71.8246 554.378 72.4803C554.247 72.5368 554.121 72.597 553.995 72.657C553.889 72.7073 553.783 72.7576 553.677 72.805C553.585 72.7538 553.593 72.6785 553.601 72.6107C553.603 72.5925 553.605 72.5748 553.605 72.5583L553.603 72.4844C553.578 71.5484 553.553 70.6182 553.534 69.6818C553.528 69.3532 553.534 69.3507 553.826 69.2365L553.832 69.2338C555.111 68.7404 556.441 68.4676 557.804 68.3508C558.797 68.2664 559.79 68.2339 560.789 68.3443C561.944 68.4741 563.054 68.7468 564.066 69.3507C565.513 70.2143 566.305 71.5064 566.597 73.1361C566.681 73.5842 566.7 74.0387 566.7 74.4932V79.2006ZM556.564 79.3825C556.759 79.9993 557.226 80.3369 557.823 80.4798C560.263 81.0771 561.782 79.0513 561.86 77.2138C561.866 77.0709 561.821 77.006 561.665 76.9995C561.361 76.9865 561.058 76.972 560.755 76.9574L560.753 76.9573C560.45 76.9427 560.146 76.9281 559.841 76.9151C559.452 76.8956 559.063 76.9411 558.68 76.993C558.161 77.0579 557.661 77.1943 557.226 77.4995C556.616 77.9215 556.344 78.6877 556.564 79.3825ZM580.736 72.8764C580.555 72.7855 580.386 72.7011 580.204 72.6232C579.036 72.1038 577.816 71.935 576.564 72.2271C574.974 72.6037 573.897 73.8504 573.676 75.4672C573.566 76.2658 573.592 77.0515 573.923 77.7917C574.546 79.1877 575.675 79.9409 577.148 80.1811C578.381 80.3759 579.575 80.1746 580.73 79.7266C580.784 79.7057 580.838 79.6834 580.89 79.6616C580.952 79.6361 581.011 79.6113 581.067 79.5902C581.147 79.6115 581.149 79.6544 581.15 79.6941C581.15 79.6998 581.15 79.7055 581.151 79.711L581.152 79.7201C581.163 80.0931 581.173 80.4654 581.183 80.8375C581.203 81.5923 581.223 82.3462 581.249 83.103C581.256 83.3238 581.184 83.4211 580.97 83.4861C580.159 83.7263 579.335 83.8822 578.498 83.9795C576.908 84.1614 575.338 84.064 573.806 83.6029C572.067 83.077 570.607 82.142 569.556 80.6356C568.829 79.5903 568.446 78.4215 568.303 77.1618C568.167 75.9022 568.277 74.675 568.68 73.4803C569.406 71.3506 570.879 69.9091 572.937 69.0585C574.507 68.4092 576.155 68.2079 577.849 68.3248C578.868 68.3962 579.854 68.578 580.795 68.9741C581.153 69.1249 581.152 69.1298 581.117 69.4768L581.113 69.513C581.016 70.4545 580.925 71.396 580.834 72.3375C580.832 72.3666 580.83 72.3961 580.828 72.4259C580.82 72.5692 580.812 72.7206 580.736 72.8764ZM587.966 71.2082C587.939 71.269 587.907 71.3393 587.777 71.3506V69.0131C587.777 68.656 587.777 68.6495 587.42 68.6495H583.417C583.053 68.6495 583.047 68.6495 583.047 69.0066V83.3692C583.047 83.7003 583.053 83.7068 583.391 83.7068H587.901C588.238 83.7068 588.238 83.7003 588.244 83.3696L588.244 77.2203C588.244 76.6489 588.29 76.084 588.394 75.5191C588.517 74.8243 588.731 74.162 589.159 73.5842C589.808 72.7141 590.86 72.4933 591.729 72.6816C592.43 72.831 592.826 73.3374 593.059 73.9802C593.261 74.5322 593.306 75.1165 593.306 75.7009V83.2134C593.306 83.2437 593.307 83.274 593.307 83.3043C593.309 83.3649 593.31 83.4255 593.306 83.4861C593.293 83.6614 593.384 83.7133 593.54 83.7003C593.583 83.696 593.626 83.6974 593.669 83.6989C593.691 83.6996 593.713 83.7003 593.734 83.7003H598.322C598.452 83.7068 598.51 83.6419 598.504 83.512C598.499 83.4514 598.501 83.3908 598.502 83.3302C598.503 83.2999 598.504 83.2696 598.504 83.2393C598.504 82.6028 598.504 81.9669 598.505 81.3313C598.507 80.0609 598.508 78.7914 598.504 77.519C598.504 76.9606 598.517 76.4022 598.595 75.8502C598.685 75.1879 598.841 74.5516 599.166 73.9608C599.477 73.4024 599.905 72.9608 600.535 72.766C601.956 72.331 603.053 72.818 603.416 74.3179C603.513 74.7269 603.559 75.136 603.559 75.5516V83.5315C603.559 83.6354 603.598 83.7003 603.715 83.7003H608.341C608.566 83.7003 608.67 83.7067 608.718 83.6579C608.767 83.6082 608.757 83.5012 608.757 83.2718C608.757 82.4101 608.756 81.5492 608.755 80.6885C608.754 78.9679 608.752 77.2482 608.757 75.5256C608.757 74.8243 608.737 74.1296 608.698 73.4283C608.666 72.766 608.562 72.1102 608.38 71.4739C607.907 69.7857 606.81 68.7663 605.09 68.4352C604.195 68.2664 603.293 68.2209 602.384 68.3573C601.054 68.5585 599.886 69.091 598.932 70.0714C598.693 70.3159 598.49 70.5899 598.288 70.8627C598.222 70.9522 598.156 71.0416 598.088 71.1298C598.002 71.0635 597.963 70.9772 597.926 70.8929C597.915 70.8699 597.905 70.8469 597.894 70.8246C597.349 69.7338 596.499 69.0001 595.357 68.604C594.182 68.1949 592.988 68.1884 591.788 68.4352C590.12 68.7793 588.803 69.6429 587.978 71.1817C587.974 71.1902 587.97 71.1991 587.966 71.2082Z" fill="#DA5340"/>
</g>
</g>
<path d="M34.7637 1.44824H1165.24C1183.64 1.44838 1198.55 16.3643 1198.55 34.7637V595.236C1198.55 613.636 1183.64 628.552 1165.24 628.552H34.7637C16.3643 628.552 1.44836 613.636 1.44824 595.236V34.7637C1.44838 16.3643 16.3643 1.44836 34.7637 1.44824Z" stroke="url(#paint0_linear_87_5584)" stroke-width="2.89699"/>
</g>
<defs>
<filter id="filter0_n_87_5584" x="0" y="0" width="1200" height="630" filterUnits="userSpaceOnUse" color-interpolation-filters="sRGB">
<feFlood flood-opacity="0" result="BackgroundImageFix"/>
<feBlend mode="normal" in="SourceGraphic" in2="BackgroundImageFix" result="shape"/>
<feTurbulence type="fractalNoise" baseFrequency="0.5 0.5" stitchTiles="stitch" numOctaves="3" result="noise" seed="8462" />
<feColorMatrix in="noise" type="luminanceToAlpha" result="alphaNoise" />
<feComponentTransfer in="alphaNoise" result="coloredNoise1">
<feFuncA type="discrete" tableValues="1 1 1 1 1 1 1 1 1 1 1 1 1 1 1 1 1 1 1 1 1 1 1 1 1 1 1 1 1 1 1 1 1 1 1 1 1 1 1 1 1 1 1 1 1 1 1 1 1 1 1 0 0 0 0 0 0 0 0 0 0 0 0 0 0 0 0 0 0 0 0 0 0 0 0 0 0 0 0 0 0 0 0 0 0 0 0 0 0 0 0 0 0 0 0 0 0 0 0 0 "/>
</feComponentTransfer>
<feComposite operator="in" in2="shape" in="coloredNoise1" result="noise1Clipped" />
<feFlood flood-color="rgba(255, 255, 255, 0.1)" result="color1Flood" />
<feComposite operator="in" in2="noise1Clipped" in="color1Flood" result="color1" />
<feMerge result="effect1_noise_87_5584">
<feMergeNode in="shape" />
<feMergeNode in="color1" />
</feMerge>
</filter>
<filter id="filter1_n_87_5584" x="30.0005" y="28" width="40" height="40" filterUnits="userSpaceOnUse" color-interpolation-filters="sRGB">
<feFlood flood-opacity="0" result="BackgroundImageFix"/>
<feBlend mode="normal" in="SourceGraphic" in2="BackgroundImageFix" result="shape"/>
<feTurbulence type="fractalNoise" baseFrequency="0.071599557995796204 0.071599557995796204" stitchTiles="stitch" numOctaves="3" result="noise" seed="9343" />
<feColorMatrix in="noise" type="luminanceToAlpha" result="alphaNoise" />
<feComponentTransfer in="alphaNoise" result="coloredNoise1">
<feFuncA type="discrete" tableValues="0 0 0 0 0 0 1 1 1 1 1 1 1 1 1 1 1 1 1 1 1 1 1 1 1 1 1 1 1 1 1 1 1 1 1 1 1 1 1 1 1 1 1 1 0 0 0 0 0 0 0 0 0 0 0 0 0 0 0 0 0 0 0 0 0 0 0 0 0 0 0 0 0 0 0 0 0 0 0 0 0 0 0 0 0 0 0 0 0 0 0 0 0 0 0 0 0 0 0 0 "/>
</feComponentTransfer>
<feComposite operator="in" in2="shape" in="coloredNoise1" result="noise1Clipped" />
<feFlood flood-color="rgba(255, 255, 255, 0.25)" result="color1Flood" />
<feComposite operator="in" in2="noise1Clipped" in="color1Flood" result="color1" />
<feMerge result="effect1_noise_87_5584">
<feMergeNode in="shape" />
<feMergeNode in="color1" />
</feMerge>
</filter>
<filter id="filter2_n_87_5584" x="30" y="559.555" width="40" height="40" filterUnits="userSpaceOnUse" color-interpolation-filters="sRGB">
<feFlood flood-opacity="0" result="BackgroundImageFix"/>
<feBlend mode="normal" in="SourceGraphic" in2="BackgroundImageFix" result="shape"/>
<feTurbulence type="fractalNoise" baseFrequency="0.071599557995796204 0.071599557995796204" stitchTiles="stitch" numOctaves="3" result="noise" seed="9343" />
<feColorMatrix in="noise" type="luminanceToAlpha" result="alphaNoise" />
<feComponentTransfer in="alphaNoise" result="coloredNoise1">
<feFuncA type="discrete" tableValues="0 0 0 0 0 0 1 1 1 1 1 1 1 1 1 1 1 1 1 1 1 1 1 1 1 1 1 1 1 1 1 1 1 1 1 1 1 1 1 1 1 1 1 1 0 0 0 0 0 0 0 0 0 0 0 0 0 0 0 0 0 0 0 0 0 0 0 0 0 0 0 0 0 0 0 0 0 0 0 0 0 0 0 0 0 0 0 0 0 0 0 0 0 0 0 0 0 0 0 0 "/>
</feComponentTransfer>
<feComposite operator="in" in2="shape" in="coloredNoise1" result="noise1Clipped" />
<feFlood flood-color="rgba(255, 255, 255, 0.25)" result="color1Flood" />
<feComposite operator="in" in2="noise1Clipped" in="color1Flood" result="color1" />
<feMerge result="effect1_noise_87_5584">
<feMergeNode in="shape" />
<feMergeNode in="color1" />
</feMerge>
</filter>
<filter id="filter3_n_87_5584" x="1130" y="28" width="40" height="40" filterUnits="userSpaceOnUse" color-interpolation-filters="sRGB">
<feFlood flood-opacity="0" result="BackgroundImageFix"/>
<feBlend mode="normal" in="SourceGraphic" in2="BackgroundImageFix" result="shape"/>
<feTurbulence type="fractalNoise" baseFrequency="0.071599557995796204 0.071599557995796204" stitchTiles="stitch" numOctaves="3" result="noise" seed="9343" />
<feColorMatrix in="noise" type="luminanceToAlpha" result="alphaNoise" />
<feComponentTransfer in="alphaNoise" result="coloredNoise1">
<feFuncA type="discrete" tableValues="0 0 0 0 0 0 1 1 1 1 1 1 1 1 1 1 1 1 1 1 1 1 1 1 1 1 1 1 1 1 1 1 1 1 1 1 1 1 1 1 1 1 1 1 0 0 0 0 0 0 0 0 0 0 0 0 0 0 0 0 0 0 0 0 0 0 0 0 0 0 0 0 0 0 0 0 0 0 0 0 0 0 0 0 0 0 0 0 0 0 0 0 0 0 0 0 0 0 0 0 "/>
</feComponentTransfer>
<feComposite operator="in" in2="shape" in="coloredNoise1" result="noise1Clipped" />
<feFlood flood-color="rgba(255, 255, 255, 0.25)" result="color1Flood" />
<feComposite operator="in" in2="noise1Clipped" in="color1Flood" result="color1" />
<feMerge result="effect1_noise_87_5584">
<feMergeNode in="shape" />
<feMergeNode in="color1" />
</feMerge>
</filter>
<filter id="filter4_n_87_5584" x="1130" y="559.555" width="40" height="40" filterUnits="userSpaceOnUse" color-interpolation-filters="sRGB">
<feFlood flood-opacity="0" result="BackgroundImageFix"/>
<feBlend mode="normal" in="SourceGraphic" in2="BackgroundImageFix" result="shape"/>
<feTurbulence type="fractalNoise" baseFrequency="0.071599557995796204 0.071599557995796204" stitchTiles="stitch" numOctaves="3" result="noise" seed="9343" />
<feColorMatrix in="noise" type="luminanceToAlpha" result="alphaNoise" />
<feComponentTransfer in="alphaNoise" result="coloredNoise1">
<feFuncA type="discrete" tableValues="0 0 0 0 0 0 1 1 1 1 1 1 1 1 1 1 1 1 1 1 1 1 1 1 1 1 1 1 1 1 1 1 1 1 1 1 1 1 1 1 1 1 1 1 0 0 0 0 0 0 0 0 0 0 0 0 0 0 0 0 0 0 0 0 0 0 0 0 0 0 0 0 0 0 0 0 0 0 0 0 0 0 0 0 0 0 0 0 0 0 0 0 0 0 0 0 0 0 0 0 "/>
</feComponentTransfer>
<feComposite operator="in" in2="shape" in="coloredNoise1" result="noise1Clipped" />
<feFlood flood-color="rgba(255, 255, 255, 0.25)" result="color1Flood" />
<feComposite operator="in" in2="noise1Clipped" in="color1Flood" result="color1" />
<feMerge result="effect1_noise_87_5584">
<feMergeNode in="shape" />
<feMergeNode in="color1" />
</feMerge>
</filter>
<linearGradient id="paint0_linear_87_5584" x1="38.5644" y1="-75.8803" x2="1117.66" y2="843.652" gradientUnits="userSpaceOnUse">
<stop stop-color="white"/>
<stop offset="0.5" stop-color="#EFEFEF"/>
<stop offset="1" stop-color="#CCCCCC"/>
</linearGradient>
<clipPath id="clip0_87_5584">
<path d="M0 34.7639C0 15.5644 15.5643 0 34.7639 0H1165.24C1184.44 0 1200 15.5643 1200 34.7639V595.236C1200 614.436 1184.44 630 1165.24 630H34.7639C15.5644 630 0 614.436 0 595.236V34.7639Z" fill="white"/>
</clipPath>
<clipPath id="clip1_87_5584">
<rect width="40" height="40" fill="white" transform="translate(580 476.224)"/>
</clipPath>
<clipPath id="clip2_87_5584">
<rect width="40" height="40" fill="white" transform="translate(30.0005 28)"/>
</clipPath>
<clipPath id="clip3_87_5584">
<rect width="40" height="40" fill="white" transform="translate(30 559.555)"/>
</clipPath>
<clipPath id="clip4_87_5584">
<rect width="40" height="40" fill="white" transform="translate(1130 28)"/>
</clipPath>
<clipPath id="clip5_87_5584">
<rect width="40" height="40" fill="white" transform="translate(1130 559.555)"/>
</clipPath>
</defs>
</svg>
