<svg width="769" height="181" viewBox="0 0 769 181" fill="none" xmlns="http://www.w3.org/2000/svg">
<g clip-path="url(#clip0_291_534008)">
<g opacity="0.8">
<mask id="path-1-outside-1_291_534008" maskUnits="userSpaceOnUse" x="-0.86499" y="-0.865234" width="770" height="473" fill="black">
<rect fill="white" x="-0.86499" y="-0.865234" width="770" height="473"/>
<path d="M735.209 2.13477C752.504 2.13477 766.526 16.1559 766.526 33.4512V437.709C766.526 455.004 752.504 469.025 735.209 469.025H33.4514C16.1562 469.025 2.13501 455.004 2.13501 437.709V33.4512C2.13501 16.1559 16.1562 2.13477 33.4514 2.13477H735.209ZM202.842 417.393C191.836 417.393 182.914 426.314 182.913 437.32C182.913 448.326 191.836 457.249 202.842 457.249C213.848 457.249 222.77 448.326 222.77 437.32C222.77 426.315 213.848 417.393 202.842 417.393ZM566.418 417.393C555.412 417.393 546.49 426.314 546.49 437.32C546.49 448.326 555.412 457.249 566.418 457.249C577.424 457.249 586.346 448.326 586.346 437.32C586.346 426.315 577.424 417.393 566.418 417.393ZM266.897 417.393C264.538 417.393 262.626 419.305 262.626 421.663V440.168C262.626 442.526 264.538 444.438 266.897 444.438H285.402C287.76 444.437 289.672 442.526 289.672 440.168V421.663C289.672 419.305 287.76 417.393 285.402 417.393H266.897ZM483.858 417.393C481.499 417.393 479.588 419.305 479.588 421.663V440.168C479.588 442.526 481.5 444.437 483.858 444.438H502.363C504.721 444.438 506.633 442.526 506.633 440.168V421.663C506.633 419.305 504.721 417.393 502.363 417.393H483.858ZM229.175 172.235C205.984 172.236 187.184 191.036 187.184 214.228C187.184 237.419 205.984 256.219 229.175 256.219C252.366 256.219 271.167 237.419 271.167 214.228C271.167 191.036 252.366 172.235 229.175 172.235ZM539.487 172.235C516.295 172.235 497.494 191.036 497.494 214.228C497.495 237.419 516.295 256.219 539.487 256.219C562.678 256.219 581.478 237.419 581.478 214.228C581.478 191.036 562.678 172.235 539.487 172.235Z"/>
</mask>
<path d="M735.209 2.13477C752.504 2.13477 766.526 16.1559 766.526 33.4512V437.709C766.526 455.004 752.504 469.025 735.209 469.025H33.4514C16.1562 469.025 2.13501 455.004 2.13501 437.709V33.4512C2.13501 16.1559 16.1562 2.13477 33.4514 2.13477H735.209ZM202.842 417.393C191.836 417.393 182.914 426.314 182.913 437.32C182.913 448.326 191.836 457.249 202.842 457.249C213.848 457.249 222.77 448.326 222.77 437.32C222.77 426.315 213.848 417.393 202.842 417.393ZM566.418 417.393C555.412 417.393 546.49 426.314 546.49 437.32C546.49 448.326 555.412 457.249 566.418 457.249C577.424 457.249 586.346 448.326 586.346 437.32C586.346 426.315 577.424 417.393 566.418 417.393ZM266.897 417.393C264.538 417.393 262.626 419.305 262.626 421.663V440.168C262.626 442.526 264.538 444.438 266.897 444.438H285.402C287.76 444.437 289.672 442.526 289.672 440.168V421.663C289.672 419.305 287.76 417.393 285.402 417.393H266.897ZM483.858 417.393C481.499 417.393 479.588 419.305 479.588 421.663V440.168C479.588 442.526 481.5 444.437 483.858 444.438H502.363C504.721 444.438 506.633 442.526 506.633 440.168V421.663C506.633 419.305 504.721 417.393 502.363 417.393H483.858ZM229.175 172.235C205.984 172.236 187.184 191.036 187.184 214.228C187.184 237.419 205.984 256.219 229.175 256.219C252.366 256.219 271.167 237.419 271.167 214.228C271.167 191.036 252.366 172.235 229.175 172.235ZM539.487 172.235C516.295 172.235 497.494 191.036 497.494 214.228C497.495 237.419 516.295 256.219 539.487 256.219C562.678 256.219 581.478 237.419 581.478 214.228C581.478 191.036 562.678 172.235 539.487 172.235Z" fill="#F95F4A"/>
<path d="M202.842 417.393L202.842 415.257H202.842V417.393ZM182.913 437.32L180.778 437.32V437.32H182.913ZM202.842 457.249V459.384H202.842L202.842 457.249ZM222.77 437.32H224.905V437.32L222.77 437.32ZM566.418 417.393V415.257V417.393ZM546.49 437.32L544.354 437.32V437.32H546.49ZM566.418 457.249V459.384V457.249ZM586.346 437.32H588.481V437.32L586.346 437.32ZM262.626 440.168H260.491V440.168L262.626 440.168ZM285.402 444.438V446.573H285.402L285.402 444.438ZM289.672 440.168L291.807 440.168V440.168H289.672ZM285.402 417.393L285.402 415.257H285.402V417.393ZM483.858 417.393V415.257H483.857L483.858 417.393ZM479.588 440.168H477.453V440.168L479.588 440.168ZM483.858 444.438L483.857 446.573H483.858V444.438ZM506.633 440.168L508.768 440.168V440.168H506.633ZM229.175 172.235V170.1H229.175L229.175 172.235ZM187.184 214.228H185.049V214.228L187.184 214.228ZM229.175 256.219L229.175 258.354H229.175V256.219ZM271.167 214.228L273.302 214.228V214.228H271.167ZM539.487 172.235V170.1V172.235ZM497.494 214.228H495.359V214.228L497.494 214.228ZM539.487 256.219V258.354V256.219ZM581.478 214.228L583.613 214.228V214.228H581.478ZM735.209 2.13477V4.26993C751.325 4.26993 764.39 17.3352 764.39 33.4512H766.526H768.661C768.661 14.9767 753.684 -0.000402212 735.209 -0.000402212V2.13477ZM766.526 33.4512H764.39V437.709H766.526H768.661V33.4512H766.526ZM766.526 437.709H764.39C764.39 453.825 751.325 466.89 735.209 466.89V469.025V471.161C753.684 471.161 768.661 456.183 768.661 437.709H766.526ZM735.209 469.025V466.89H33.4514V469.025V471.161H735.209V469.025ZM33.4514 469.025V466.89C17.3354 466.89 4.27018 453.825 4.27018 437.709H2.13501H-0.000158072C-0.000158072 456.183 14.977 471.161 33.4514 471.161V469.025ZM2.13501 437.709H4.27018V33.4512H2.13501H-0.000158072V437.709H2.13501ZM2.13501 33.4512H4.27018C4.27018 17.3352 17.3354 4.26993 33.4514 4.26993V2.13477V-0.000402212C14.977 -0.000402212 -0.000158072 14.9767 -0.000158072 33.4512H2.13501ZM33.4514 2.13477V4.26993H735.209V2.13477V-0.000402212H33.4514V2.13477ZM202.842 417.393V415.257C190.657 415.257 180.778 425.135 180.778 437.32L182.913 437.32L185.048 437.32C185.049 427.494 193.015 419.528 202.842 419.528V417.393ZM182.913 437.32H180.778C180.778 449.506 190.657 459.384 202.842 459.384V457.249V455.114C193.015 455.114 185.048 447.147 185.048 437.32H182.913ZM202.842 457.249L202.842 459.384C215.027 459.384 224.905 449.505 224.905 437.32H222.77H220.635C220.635 447.147 212.669 455.114 202.842 455.114L202.842 457.249ZM222.77 437.32L224.905 437.32C224.905 425.135 215.027 415.258 202.842 415.257L202.842 417.393L202.842 419.528C212.669 419.528 220.634 427.494 220.635 437.32L222.77 437.32ZM566.418 417.393V415.257C554.233 415.257 544.355 425.135 544.354 437.32L546.49 437.32L548.625 437.32C548.625 427.494 556.591 419.528 566.418 419.528V417.393ZM546.49 437.32H544.354C544.354 449.506 554.233 459.384 566.418 459.384V457.249V455.114C556.591 455.114 548.625 447.147 548.625 437.32H546.49ZM566.418 457.249V459.384C578.604 459.384 588.481 449.505 588.481 437.32H586.346H584.211C584.211 447.147 576.245 455.114 566.418 455.114V457.249ZM586.346 437.32L588.481 437.32C588.481 425.135 578.603 415.257 566.418 415.257V417.393V419.528C576.245 419.528 584.211 427.494 584.211 437.32L586.346 437.32ZM266.897 417.393V415.257C263.359 415.257 260.491 418.125 260.491 421.663H262.626H264.761C264.761 420.484 265.717 419.528 266.897 419.528V417.393ZM262.626 421.663H260.491V440.168H262.626H264.761V421.663H262.626ZM262.626 440.168L260.491 440.168C260.491 443.706 263.36 446.573 266.897 446.573V444.438V442.302C265.717 442.302 264.761 441.347 264.761 440.168L262.626 440.168ZM266.897 444.438V446.573H285.402V444.438V442.302H266.897V444.438ZM285.402 444.438L285.402 446.573C288.939 446.573 291.807 443.706 291.807 440.168L289.672 440.168L287.537 440.168C287.537 441.346 286.581 442.302 285.402 442.302L285.402 444.438ZM289.672 440.168H291.807V421.663H289.672H287.537V440.168H289.672ZM289.672 421.663H291.807C291.807 418.125 288.939 415.258 285.402 415.257L285.402 417.393L285.402 419.528C286.581 419.528 287.537 420.484 287.537 421.663H289.672ZM285.402 417.393V415.257H266.897V417.393V419.528H285.402V417.393ZM483.858 417.393L483.857 415.257C480.32 415.258 477.453 418.126 477.453 421.663H479.588H481.723C481.723 420.484 482.679 419.528 483.858 419.528L483.858 417.393ZM479.588 421.663H477.453V440.168H479.588H481.723V421.663H479.588ZM479.588 440.168L477.453 440.168C477.453 443.705 480.32 446.572 483.857 446.573L483.858 444.438L483.858 442.302C482.679 442.302 481.723 441.347 481.723 440.168L479.588 440.168ZM483.858 444.438V446.573H502.363V444.438V442.302H483.858V444.438ZM502.363 444.438V446.573C505.9 446.573 508.768 443.706 508.768 440.168L506.633 440.168L504.498 440.168C504.498 441.347 503.542 442.302 502.363 442.302V444.438ZM506.633 440.168H508.768V421.663H506.633H504.498V440.168H506.633ZM506.633 421.663H508.768C508.768 418.125 505.9 415.257 502.363 415.257V417.393V419.528C503.542 419.528 504.498 420.484 504.498 421.663H506.633ZM502.363 417.393V415.257H483.858V417.393V419.528H502.363V417.393ZM229.175 172.235L229.175 170.1C204.805 170.1 185.049 189.857 185.049 214.228H187.184H189.319C189.319 192.215 207.163 174.371 229.175 174.371L229.175 172.235ZM187.184 214.228L185.049 214.228C185.049 238.598 204.805 258.354 229.175 258.354L229.175 256.219L229.175 254.084C207.163 254.083 189.319 236.239 189.319 214.228L187.184 214.228ZM229.175 256.219V258.354C253.545 258.354 273.302 238.598 273.302 214.228L271.167 214.228L269.032 214.228C269.032 236.239 251.187 254.084 229.175 254.084V256.219ZM271.167 214.228H273.302C273.302 189.857 253.546 170.1 229.175 170.1V172.235V174.371C251.187 174.371 269.032 192.215 269.032 214.228H271.167ZM539.487 172.235V170.1C515.116 170.1 495.359 189.857 495.359 214.228H497.494H499.63C499.63 192.215 517.474 174.371 539.487 174.371V172.235ZM497.494 214.228L495.359 214.228C495.359 238.598 515.116 258.354 539.487 258.354V256.219V254.084C517.475 254.084 499.63 236.239 499.63 214.228L497.494 214.228ZM539.487 256.219V258.354C563.857 258.354 583.613 238.598 583.613 214.228L581.478 214.228L579.343 214.228C579.342 236.239 561.498 254.083 539.487 254.084V256.219ZM581.478 214.228H583.613C583.613 189.857 563.857 170.1 539.487 170.1V172.235V174.371C561.499 174.371 579.343 192.215 579.343 214.228H581.478Z" fill="#202020" mask="url(#path-1-outside-1_291_534008)"/>
</g>
<path d="M228.463 74.0176C305.898 74.0176 368.672 136.791 368.672 214.227C368.672 291.662 305.898 354.437 228.463 354.437C151.027 354.437 88.2539 291.662 88.2539 214.227C88.2541 136.791 151.028 74.0176 228.463 74.0176ZM229.175 170.1C204.804 170.1 185.048 189.856 185.048 214.227C185.048 238.597 204.804 258.354 229.175 258.354C253.545 258.353 273.302 238.597 273.302 214.227C273.302 189.856 253.545 170.1 229.175 170.1Z" fill="#202020"/>
<path d="M538.774 160.848C568.254 160.848 592.153 184.746 592.153 214.227C592.153 243.707 568.255 267.606 538.774 267.606C509.294 267.606 485.394 243.707 485.394 214.227C485.394 184.746 509.294 160.848 538.774 160.848ZM539.486 170.101C515.116 170.101 495.359 189.857 495.359 214.228C495.359 238.598 515.116 258.354 539.486 258.354C563.856 258.354 583.612 238.598 583.612 214.228C583.612 189.857 563.856 170.101 539.486 170.101Z" fill="#202020"/>
<g clip-path="url(#clip1_291_534008)">
<path d="M32.0273 19.2148C39.1024 19.2151 44.8379 24.9512 44.8379 32.0264C44.8379 39.1015 39.1024 44.8367 32.0273 44.8369C24.952 44.8369 19.2158 39.1017 19.2158 32.0264C19.2158 24.951 24.952 19.2148 32.0273 19.2148ZM33.0732 24.3594C32.8414 23.2198 31.2124 23.2198 30.9805 24.3594L30.0029 29.1689C29.9175 29.5887 29.5888 29.9166 29.1689 30.002L24.3604 30.9805C23.2206 31.2123 23.2206 32.8405 24.3604 33.0723L29.1689 34.0508C29.5888 34.1362 29.9175 34.464 30.0029 34.8838L30.9805 39.6934C31.2124 40.8329 32.8413 40.8329 33.0732 39.6934L34.0508 34.8838C34.1362 34.464 34.4649 34.1362 34.8848 34.0508L39.6934 33.0723C40.8331 32.8405 40.8331 31.2123 39.6934 30.9805L34.8848 30.002C34.4649 29.9166 34.1362 29.5887 34.0508 29.1689L33.0732 24.3594Z" fill="#202020"/>
</g>
<g clip-path="url(#clip2_291_534008)">
<path d="M736.518 19.2148C743.593 19.2148 749.329 24.951 749.329 32.0264C749.329 39.1017 743.593 44.8369 736.518 44.8369C729.442 44.8367 723.707 39.1015 723.707 32.0264C723.707 24.9512 729.442 19.2151 736.518 19.2148ZM737.564 24.3594C737.333 23.2198 735.704 23.2198 735.472 24.3594L734.494 29.1689C734.409 29.5888 734.08 29.9166 733.66 30.002L728.852 30.9805C727.712 31.2123 727.712 32.8405 728.852 33.0723L733.66 34.0508C734.08 34.1362 734.409 34.464 734.494 34.8838L735.472 39.6934C735.704 40.8329 737.333 40.8329 737.564 39.6934L738.542 34.8838C738.627 34.464 738.956 34.1362 739.376 34.0508L744.185 33.0723C745.324 32.8405 745.324 31.2123 744.185 30.9805L739.376 30.002C738.956 29.9166 738.627 29.5887 738.542 29.1689L737.564 24.3594Z" fill="#202020"/>
</g>
<rect x="157.824" y="41.1022" width="454.926" height="107.826" rx="10.8538" fill="#F9FAF1"/>
<rect x="157.824" y="41.1022" width="454.926" height="107.826" rx="10.8538" stroke="#202020" stroke-width="1.06758"/>
<line x1="191.453" y1="94.8393" x2="579.342" y2="94.8393" stroke="black" stroke-width="1.06758"/>
<line x1="191.453" y1="131.136" x2="579.342" y2="131.136" stroke="black" stroke-width="1.06758"/>
<path d="M194.526 66.2266H192.441C192.573 64.1743 192.573 60.1027 192.441 58.0504C193.143 58.1492 193.846 58.1602 194.504 58.0504C194.372 60.1027 194.372 64.1963 194.526 66.2266ZM205.854 66.2266H203.198C201.475 63.9768 199.686 61.7489 197.82 59.5759C197.787 61.7818 197.82 64.0207 197.919 66.2266H195.944C196.031 63.5048 196.031 60.7722 195.944 58.0504C196.668 58.1382 197.941 58.1602 198.665 58.0504C200.355 60.3222 202.122 62.561 203.966 64.7669C203.999 62.5281 203.977 60.2783 203.867 58.0504C204.559 58.1492 205.206 58.1602 205.821 58.0504C205.744 60.7722 205.755 63.5048 205.854 66.2266ZM207.228 66.2266C207.349 64.3389 207.349 59.9381 207.228 58.0504C209.313 58.0504 210.477 57.9956 211.969 57.9956C215.547 57.9956 217.665 59.5211 217.665 62.0891C217.665 64.7011 215.459 66.2485 211.728 66.2485C210.323 66.2485 208.776 66.2266 207.228 66.2266ZM209.171 59.2467C209.138 61.1672 209.149 63.011 209.182 64.9425C209.818 64.9645 210.751 65.0303 211.728 65.0303C214.252 65.0303 215.755 63.9438 215.755 62.0891C215.755 60.2673 214.274 59.2028 211.794 59.2028C211.069 59.2028 210.147 59.2577 209.171 59.2467ZM227.422 66.2266H218.62C218.752 64.1414 218.752 60.0698 218.62 58.0504C219.959 58.1602 225.413 58.237 227.422 58.0834C227.378 58.6211 227.378 59.1808 227.422 59.7296C225.885 59.4333 222.681 59.2577 220.606 59.2796C220.584 60.0588 220.573 60.838 220.584 61.6172C222.626 61.6501 225.161 61.5623 226.642 61.4636C226.599 61.9135 226.599 62.4074 226.642 62.8464C225.15 62.7586 222.626 62.6818 220.584 62.7256C220.584 63.461 220.584 64.2292 220.628 64.9864C222.713 65.0084 225.896 64.8328 227.422 64.5474C227.378 65.0962 227.378 65.6778 227.422 66.2266ZM230.475 66.2266H227.82C229.257 64.8547 230.618 63.4829 231.88 62.1111C230.618 60.7502 229.268 59.4003 227.831 58.0504C228.698 58.1382 229.576 58.1382 230.443 58.0504C231.244 59.0711 232.078 60.1027 232.978 61.1343C233.867 60.1027 234.69 59.0711 235.491 58.0504C236.336 58.1382 237.203 58.1382 238.048 58.0504C236.599 59.4003 235.238 60.7612 233.965 62.1001C235.227 63.4829 236.577 64.8438 238.004 66.2266H235.249C234.503 65.184 233.702 64.1524 232.868 63.1207C232.034 64.1524 231.222 65.184 230.475 66.2266Z" fill="black"/>
<path d="M299.738 75.4119C299.738 76.2126 299.589 76.9905 299.291 77.7454C298.994 78.4775 298.777 79.2325 298.639 80.0104C298.136 80.6738 297.667 81.3602 297.232 82.0694C296.798 82.7786 296.352 83.4878 295.894 84.197C295.436 84.9062 294.956 85.5926 294.453 86.256C293.949 86.8966 293.377 87.48 292.737 88.0062C292.76 88.0291 292.771 88.0748 292.771 88.1435C292.771 88.2808 292.703 88.3951 292.565 88.4867C292.451 88.5553 292.417 88.6468 292.462 88.7612C291.89 89.356 291.33 89.9394 290.781 90.5114C290.232 91.0833 289.728 91.7239 289.271 92.4331C288.768 92.6848 288.356 93.0966 288.035 93.6685C287.898 93.6685 287.795 93.7028 287.727 93.7715C287.658 93.8172 287.566 93.863 287.452 93.9087C286.72 94.801 285.954 95.6475 285.153 96.4482C284.352 97.2489 283.494 97.981 282.579 98.6445C282.236 98.8961 281.893 99.1249 281.55 99.3308C281.206 99.5367 280.875 99.7541 280.554 99.9828C280.348 100.12 280.143 100.28 279.937 100.463C279.754 100.646 279.559 100.818 279.353 100.978C278.69 101.55 278.038 102.03 277.397 102.419C276.757 102.785 276.002 103.037 275.132 103.174C275.064 103.426 275.029 103.701 275.029 103.998V104.822C275.029 105.096 275.018 105.382 274.995 105.679C274.972 105.954 274.892 106.217 274.755 106.469V106.572C274.755 106.8 274.812 107.018 274.926 107.224C275.041 107.453 275.098 107.681 275.098 107.91C275.098 108.07 275.018 108.207 274.858 108.322H275.75C275.75 108.642 275.842 108.917 276.025 109.145C276.23 109.374 276.333 109.546 276.333 109.66C276.333 110.049 276.288 110.472 276.196 110.93C276.127 111.41 275.899 111.731 275.51 111.891V112.097C275.51 112.326 275.487 112.543 275.441 112.749C275.395 112.978 275.292 113.195 275.132 113.401C274.995 113.401 274.858 113.401 274.72 113.401C274.606 113.424 274.492 113.435 274.377 113.435C273.416 113.435 272.559 113.206 271.804 112.749C271.552 112.154 271.38 111.536 271.289 110.896C271.22 110.278 271.186 109.649 271.186 109.008C271.186 107.75 271.277 106.503 271.46 105.268C271.643 104.032 271.792 102.797 271.906 101.561L272.421 100.566C272.467 99.9256 272.547 99.2851 272.661 98.6445C272.776 97.981 272.89 97.329 273.005 96.6884C273.119 96.0478 273.211 95.4072 273.279 94.7667C273.371 94.1261 273.405 93.4855 273.382 92.8449C273.565 92.456 273.691 92.0442 273.76 91.6095C273.851 91.1748 273.897 90.7516 273.897 90.3398C273.897 90.111 273.885 89.8822 273.863 89.6534C273.84 89.4247 273.771 89.2073 273.657 89.0014C273.794 88.9099 273.885 88.7955 273.931 88.6582C273.977 88.521 274.046 88.3951 274.137 88.2808C274.206 87.3885 274.263 86.5077 274.309 85.6383C274.354 84.7461 274.377 83.8653 274.377 82.9959C274.377 82.5155 274.366 82.0465 274.343 81.5889C274.32 81.1085 274.286 80.6281 274.24 80.1476C274.217 79.9646 274.171 79.7473 274.103 79.4956C274.057 79.2439 274.034 79.0495 274.034 78.9122C274.034 78.7292 274.046 78.5462 274.068 78.3631C274.091 78.1572 274.103 77.9513 274.103 77.7454C274.103 77.5167 274.08 77.2993 274.034 77.0934C273.988 76.8646 273.908 76.6587 273.794 76.4757C272.696 76.796 271.712 77.2307 270.843 77.7798C269.973 78.3059 269.092 78.9008 268.2 79.5642C267.834 79.8159 267.434 80.1133 266.999 80.4565C266.564 80.7996 266.153 81.0627 265.764 81.2458C265.695 81.2915 265.615 81.3258 265.524 81.3487C265.409 81.3487 265.318 81.3487 265.249 81.3487C264.997 81.3487 264.769 81.3373 264.563 81.3144C264.357 81.2686 264.151 81.2458 263.945 81.2458C263.625 80.9255 263.247 80.6738 262.812 80.4908C262.744 80.2163 262.71 79.9188 262.71 79.5986C262.71 79.2783 262.744 78.9694 262.812 78.672C262.858 78.3746 262.938 78.0772 263.053 77.7798C263.327 77.6882 263.625 77.5853 263.945 77.4709C264.242 77.3565 264.54 77.2307 264.837 77.0934C265.112 76.9333 265.363 76.7617 265.592 76.5787C265.821 76.3728 266.004 76.1211 266.141 75.8237C266.279 75.8923 266.404 75.9266 266.519 75.9266C266.633 75.9266 266.736 75.9152 266.828 75.8923C266.919 75.8694 267.022 75.8466 267.136 75.8237C267.548 75.572 267.96 75.3089 268.372 75.0344C268.807 74.7599 269.253 74.5311 269.71 74.3481C269.847 74.3023 269.928 74.2451 269.95 74.1765C269.973 74.1078 269.973 74.0049 269.95 73.8676C270.477 73.7075 271.026 73.5244 271.598 73.3185C272.17 73.0898 272.65 72.7809 273.039 72.392H273.657C274 72.1403 274.366 71.9344 274.755 71.7743C275.144 71.6141 275.533 71.4654 275.922 71.3282C276.333 71.168 276.734 71.0079 277.123 70.8477C277.512 70.6647 277.878 70.4359 278.221 70.1614C278.358 70.1156 278.472 70.0928 278.564 70.0928C278.678 70.0928 278.804 70.1156 278.941 70.1614C279.17 70.047 279.365 69.9097 279.525 69.7496L280.074 69.2005C280.44 69.2005 280.772 69.1662 281.069 69.0976C281.367 69.0289 281.653 68.9374 281.927 68.823C282.202 68.7086 282.465 68.5828 282.716 68.4455C282.991 68.2854 283.288 68.1252 283.609 67.9651C283.746 68.0109 283.849 68.0681 283.917 68.1367C283.986 68.1824 284.1 68.2053 284.261 68.2053C284.489 68.0452 284.73 67.9308 284.981 67.8621C285.256 67.7706 285.53 67.702 285.805 67.6562C286.079 67.6105 286.342 67.5533 286.594 67.4847C286.869 67.416 287.109 67.2902 287.315 67.1072C288.047 67.1072 288.779 67.0957 289.511 67.0729C290.266 67.0271 291.01 67.0042 291.742 67.0042C292.794 67.0042 293.858 67.0843 294.933 67.2444C296.031 67.4046 297.015 67.805 297.884 68.4455C298.228 69.2691 298.719 69.9669 299.36 70.5389C299.406 70.7905 299.452 71.0307 299.497 71.2595C299.566 71.4654 299.646 71.6713 299.738 71.8772C299.577 72.2204 299.497 72.5979 299.497 73.0097C299.497 73.4215 299.532 73.8333 299.6 74.2451C299.692 74.634 299.738 75.023 299.738 75.4119ZM296.546 74.5883C296.432 74.3824 296.352 74.1536 296.306 73.9019C296.283 73.6274 296.283 73.3643 296.306 73.1126C296.008 72.8839 295.78 72.5865 295.62 72.2204C295.459 71.8544 295.231 71.5798 294.933 71.3968C294.727 71.2824 294.43 71.2138 294.041 71.1909C293.675 71.168 293.366 71.1223 293.114 71.0536C292.817 70.9621 292.611 70.8706 292.497 70.7791C292.405 70.6876 292.199 70.6418 291.879 70.6418C291.604 70.6418 291.33 70.6761 291.055 70.7448C290.781 70.7905 290.506 70.8134 290.232 70.8134C290.003 70.8134 289.786 70.7677 289.58 70.6761C289.374 70.5846 289.156 70.5389 288.928 70.5389C288.676 70.5389 288.436 70.6189 288.207 70.7791C288.001 70.9392 287.749 70.985 287.452 70.9164C287.315 71.0307 287.235 71.1223 287.212 71.1909C287.212 71.2595 287.2 71.3167 287.178 71.3625C287.155 71.3854 287.097 71.3968 287.006 71.3968H286.526C286.045 71.3968 285.553 71.4654 285.05 71.6027C284.569 71.74 284.135 71.9687 283.746 72.289C283.677 72.2662 283.609 72.2547 283.54 72.2547C283.494 72.2318 283.437 72.2204 283.368 72.2204C282.979 72.2204 282.602 72.3348 282.236 72.5636C281.893 72.7695 281.504 72.8724 281.069 72.8724C280.795 73.147 280.463 73.3643 280.074 73.5244C279.685 73.6846 279.285 73.8447 278.873 74.0049C278.484 74.1422 278.118 74.3137 277.775 74.5196C277.432 74.7027 277.168 74.9772 276.985 75.3432C276.963 75.5263 277.02 75.6407 277.157 75.6864C277.294 75.7322 277.363 75.8466 277.363 76.0296C277.363 76.1897 277.329 76.3842 277.26 76.613C277.214 76.8418 277.191 77.0705 277.191 77.2993C277.191 77.8255 277.248 78.3403 277.363 78.8436C277.477 79.3469 277.592 79.8617 277.706 80.3878C277.592 80.4565 277.512 80.5594 277.466 80.6967C277.42 80.834 277.34 80.9369 277.226 81.0056C277.546 81.9664 277.706 82.9502 277.706 83.9568C277.706 84.7575 277.615 85.5468 277.432 86.3247C277.271 87.0797 277.157 87.8575 277.088 88.6582V88.6926C277.088 88.8298 277.134 88.9213 277.226 88.9671C277.317 89.0128 277.363 89.0929 277.363 89.2073C277.363 89.2759 277.351 89.3331 277.329 89.3789C277.077 90.9346 276.825 92.4903 276.574 94.046C276.345 95.6017 276.15 97.1688 275.99 98.7474H276.265C276.86 98.7474 277.386 98.5758 277.843 98.2327C278.324 97.8666 278.724 97.4663 279.044 97.0316H279.593C281.241 95.5903 282.819 94.1032 284.329 92.5704C285.862 91.0375 287.315 89.3903 288.687 87.6287C288.871 87.6287 288.996 87.583 289.065 87.4915C289.134 87.3999 289.248 87.3313 289.408 87.2856C289.889 86.6221 290.392 85.9701 290.918 85.3295C291.444 84.666 292.016 84.0369 292.634 83.4421C292.657 83.2133 292.714 83.0074 292.806 82.8244C292.92 82.6413 293.034 82.4697 293.149 82.3096C293.263 82.1495 293.366 81.9779 293.458 81.7948C293.549 81.6118 293.595 81.3945 293.595 81.1428C293.709 81.0971 293.835 81.0513 293.972 81.0056C294.11 80.9369 294.235 80.8454 294.35 80.731C294.396 80.5022 294.476 80.2963 294.59 80.1133C294.704 79.9303 294.762 79.7244 294.762 79.4956C294.762 79.4041 294.739 79.2897 294.693 79.1524C295.059 78.9923 295.345 78.7292 295.551 78.3631C295.757 77.9971 295.917 77.5967 296.031 77.162C296.146 76.7045 296.226 76.2469 296.272 75.7894C296.34 75.3318 296.432 74.9314 296.546 74.5883ZM325.338 114.636C325.269 115.025 325.109 115.3 324.858 115.46C324.629 115.643 324.411 115.894 324.206 116.215H324.068C323.84 116.215 323.611 116.238 323.382 116.283C323.176 116.329 322.959 116.386 322.73 116.455C322.616 116.409 322.478 116.375 322.318 116.352C322.158 116.329 322.055 116.249 322.009 116.112C321.826 116.203 321.575 116.249 321.254 116.249C320.728 116.249 320.225 116.1 319.744 115.803C319.287 115.506 318.806 115.277 318.303 115.117C318.166 114.842 317.994 114.59 317.788 114.362C317.605 114.156 317.411 113.95 317.205 113.744C317.022 113.538 316.839 113.321 316.656 113.092C316.473 112.863 316.324 112.589 316.21 112.268C316.164 112.131 316.107 112.051 316.038 112.028C315.969 112.005 315.867 112.005 315.729 112.028C315.752 111.776 315.718 111.559 315.626 111.376C315.558 111.193 315.386 111.079 315.112 111.033C315.112 110.735 315.066 110.484 314.974 110.278C314.883 110.072 314.768 109.889 314.631 109.729C314.517 109.592 314.379 109.443 314.219 109.283C314.082 109.123 313.968 108.928 313.876 108.699C313.67 108.654 313.464 108.619 313.258 108.596C313.075 108.596 312.87 108.596 312.641 108.596C311.543 108.596 310.479 108.802 309.449 109.214C309.335 109.26 309.209 109.317 309.072 109.386C308.957 109.454 308.843 109.512 308.729 109.557C308.683 109.557 308.637 109.557 308.591 109.557C308.568 109.58 308.534 109.592 308.488 109.592C308.328 109.592 308.18 109.557 308.042 109.489C307.905 109.443 307.756 109.42 307.596 109.42C307.528 109.42 307.447 109.431 307.356 109.454C307.287 109.5 307.219 109.534 307.15 109.557C306.807 109.672 306.487 109.74 306.189 109.763C305.251 109.946 304.256 110.083 303.204 110.175C302.174 110.266 301.225 110.507 300.355 110.896C300.172 110.987 300.058 111.124 300.012 111.307C299.966 111.513 299.955 111.708 299.978 111.891C299.726 112.074 299.532 112.314 299.394 112.611C299.28 112.909 299.166 113.218 299.051 113.538C298.96 113.881 298.857 114.213 298.742 114.533C298.628 114.854 298.468 115.128 298.262 115.357C298.331 115.494 298.365 115.643 298.365 115.803C298.365 116.146 298.25 116.489 298.022 116.832C297.793 117.176 297.621 117.507 297.507 117.828C297.393 118.148 297.301 118.457 297.232 118.754C297.164 119.075 297.061 119.36 296.924 119.612C296.786 119.864 296.603 120.07 296.374 120.23C296.123 120.39 295.78 120.47 295.345 120.47C294.933 120.47 294.579 120.39 294.281 120.23C293.984 120.07 293.744 119.864 293.561 119.612C293.377 119.36 293.229 119.063 293.114 118.72C293 118.377 292.908 118.034 292.84 117.69C293.092 117.187 293.332 116.752 293.561 116.386C293.789 116.02 293.961 115.551 294.075 114.979C294.487 114.682 294.796 114.316 295.002 113.881C295.185 113.469 295.288 113.012 295.311 112.509C295.562 112.348 295.745 112.131 295.86 111.857C295.951 111.605 296.008 111.33 296.031 111.033C295.482 110.987 294.91 110.941 294.315 110.896C293.698 110.85 293.126 110.735 292.6 110.552C292.6 110.507 292.611 110.461 292.634 110.415C292.634 110.369 292.634 110.324 292.634 110.278C292.634 109.981 292.565 109.706 292.428 109.454C292.291 109.226 292.222 108.974 292.222 108.699V108.425C292.405 108.242 292.577 108.047 292.737 107.841C292.874 107.658 293.023 107.487 293.183 107.327C293.343 107.167 293.526 107.029 293.732 106.915C293.938 106.823 294.201 106.778 294.521 106.778C294.956 106.778 295.379 106.8 295.791 106.846C296.203 106.915 296.626 106.949 297.061 106.949C297.358 106.949 297.667 106.915 297.987 106.846C298.491 105.817 298.937 104.776 299.326 103.723C299.715 102.648 300.012 101.561 300.218 100.463C300.378 100.234 300.527 99.9714 300.664 99.674C300.801 99.3537 300.904 99.022 300.973 98.6788C301.064 98.3356 301.122 98.0039 301.145 97.6836C301.19 97.3404 301.213 97.0316 301.213 96.757C301.465 96.4596 301.636 96.0936 301.728 95.6589C301.842 95.2242 301.934 94.7781 302.002 94.3205C302.071 93.8401 302.14 93.3711 302.208 92.9135C302.3 92.456 302.46 92.0556 302.689 91.7124V91.4036C302.712 91.0604 302.677 90.7516 302.586 90.477C302.7 90.4313 302.769 90.3283 302.792 90.1682C302.815 90.008 302.86 89.8708 302.929 89.7564C302.952 88.704 303.066 87.6745 303.272 86.6679C303.478 85.6383 303.65 84.6088 303.787 83.5793V83.4764C303.787 83.362 303.741 83.3048 303.65 83.3048C303.581 83.2819 303.547 83.2133 303.547 83.0989C303.547 82.893 303.57 82.6184 303.615 82.2753C303.684 81.9321 303.73 81.6461 303.753 81.4174C303.89 80.1819 303.959 78.958 303.959 77.7454C303.959 76.7159 303.924 75.6979 303.856 74.6912C303.787 73.6846 303.718 72.6665 303.65 71.637L303.924 71.2252C304.016 71.0879 304.096 70.9507 304.164 70.8134C304.393 70.7219 304.576 70.6304 304.714 70.5389C304.874 70.4245 305.08 70.3673 305.331 70.3673C305.4 70.3673 305.457 70.3787 305.503 70.4016C305.549 70.4016 305.594 70.4016 305.64 70.4016C305.777 70.4931 305.88 70.6189 305.949 70.7791C306.04 70.9392 306.121 71.0879 306.189 71.2252C306.281 71.3625 306.395 71.4769 306.532 71.5684C306.67 71.6599 306.864 71.6828 307.116 71.637C307.23 72.2776 307.55 72.6093 308.077 72.6322C308.191 72.9525 308.328 73.2728 308.488 73.5931C308.671 73.9134 308.912 74.165 309.209 74.3481C309.186 74.4396 309.175 74.5654 309.175 74.7255C309.175 75.0458 309.243 75.3547 309.381 75.6521C309.541 75.9495 309.735 76.2241 309.964 76.4757V76.5443C309.964 76.796 309.873 76.9676 309.689 77.0591C309.895 77.2879 310.044 77.5624 310.136 77.8827C310.227 78.203 310.307 78.5347 310.376 78.8779C310.444 79.1982 310.525 79.507 310.616 79.8045C310.73 80.1019 310.913 80.3307 311.165 80.4908V80.5937C311.165 80.7081 311.119 80.7768 311.028 80.7996C310.959 80.8225 310.925 80.8912 310.925 81.0056C311.337 81.7605 311.623 82.5841 311.783 83.4764C311.943 84.3686 312.149 85.2265 312.401 86.0501C312.492 86.1417 312.595 86.1989 312.709 86.2217C312.847 86.2446 312.95 86.3018 313.018 86.3933C312.881 86.4848 312.812 86.645 312.812 86.8738C312.812 87.1025 312.755 87.2741 312.641 87.3885C312.824 87.5487 312.904 87.7889 312.881 88.1092C312.881 88.4066 312.972 88.6239 313.155 88.7612V88.8985C313.155 88.99 313.133 89.07 313.087 89.1387C313.041 89.1844 313.018 89.2531 313.018 89.3446V89.4818C313.201 90.2826 313.339 91.0833 313.43 91.884C313.544 92.6848 313.659 93.4855 313.773 94.2862C313.888 95.087 314.013 95.8877 314.151 96.6884C314.288 97.4663 314.482 98.2327 314.734 98.9876C314.757 99.0105 314.768 99.0448 314.768 99.0906C314.768 99.205 314.723 99.2736 314.631 99.2965C314.54 99.2965 314.494 99.3537 314.494 99.4681C314.494 99.5825 314.528 99.7197 314.597 99.8799C314.688 100.017 314.78 100.132 314.871 100.223C314.848 100.315 314.837 100.452 314.837 100.635C314.837 100.978 314.894 101.31 315.009 101.63C315.146 101.95 315.283 102.271 315.42 102.591C315.581 102.888 315.718 103.209 315.832 103.552C315.947 103.895 315.992 104.261 315.969 104.65C316.107 104.856 316.278 105.027 316.484 105.165C316.713 105.302 316.942 105.428 317.171 105.542C317.399 105.657 317.605 105.794 317.788 105.954C317.994 106.114 318.131 106.331 318.2 106.606C318.017 106.766 317.891 106.961 317.823 107.189C317.754 107.441 317.628 107.658 317.445 107.841C317.605 108.23 317.788 108.585 317.994 108.905C318.223 109.248 318.452 109.58 318.681 109.9L319.401 110.861C319.653 111.182 319.87 111.525 320.053 111.891C320.305 111.891 320.488 111.959 320.602 112.097C320.717 112.234 320.9 112.291 321.151 112.268C321.243 112.451 321.277 112.657 321.254 112.886C321.712 112.726 322.169 112.646 322.627 112.646C322.879 112.646 323.107 112.657 323.313 112.68C323.542 112.703 323.771 112.714 324 112.714C324.274 112.714 324.514 112.68 324.72 112.611C324.812 112.749 324.88 112.897 324.926 113.058C324.972 113.241 325.006 113.424 325.029 113.607L325.132 114.156C325.178 114.339 325.247 114.499 325.338 114.636ZM312.401 105.13C312.08 103.552 311.749 101.985 311.405 100.429C311.085 98.8504 310.799 97.2604 310.547 95.6589C310.41 94.8124 310.307 93.9659 310.239 93.1194C310.17 92.273 310.078 91.4379 309.964 90.6143C309.873 89.7678 309.735 88.9328 309.552 88.1092C309.392 87.2856 309.152 86.4734 308.832 85.6727V85.604C308.832 85.5354 308.854 85.4782 308.9 85.4324C308.946 85.3867 308.969 85.3066 308.969 85.1922V85.055C308.671 84.8491 308.466 84.5631 308.351 84.197C308.237 83.8081 308.134 83.4077 308.042 82.9959C307.974 82.5613 307.871 82.1495 307.733 81.7605C307.619 81.3487 307.413 81.0056 307.116 80.731C307.001 82.0579 306.875 83.3849 306.738 84.7118C306.624 86.0158 306.544 87.3313 306.498 88.6582C306.269 88.7955 306.121 89.0243 306.052 89.3446C305.983 89.6649 305.949 89.9508 305.949 90.2025C305.949 90.3855 305.96 90.58 305.983 90.7859C306.006 90.9689 306.052 91.1634 306.121 91.3693C305.709 92.3988 305.411 93.4626 305.228 94.5608C305.045 95.636 304.839 96.7113 304.611 97.7866C304.588 97.8552 304.542 98.0153 304.473 98.267C304.428 98.4958 304.37 98.736 304.302 98.9876C304.233 99.2393 304.176 99.4681 304.13 99.674C304.084 99.857 304.061 99.96 304.061 99.9828C304.039 100.143 304.027 100.303 304.027 100.463C304.05 100.623 304.061 100.784 304.061 100.944L303.547 101.458C303.455 102.328 303.284 103.174 303.032 103.998C302.803 104.799 302.563 105.622 302.311 106.469C302.471 106.492 302.62 106.503 302.757 106.503C302.918 106.526 303.078 106.537 303.238 106.537C303.97 106.537 304.702 106.492 305.434 106.4C306.189 106.286 306.933 106.183 307.665 106.091C307.916 106.046 308.18 106.011 308.454 105.988C308.729 105.943 308.992 105.92 309.243 105.92C309.358 105.897 309.495 105.897 309.655 105.92C309.815 105.92 309.953 105.908 310.067 105.885C310.25 105.84 310.364 105.771 310.41 105.679C310.479 105.565 310.605 105.496 310.788 105.474C310.925 105.542 311.085 105.577 311.268 105.577C311.474 105.577 311.668 105.531 311.851 105.439C312.034 105.348 312.217 105.245 312.401 105.13ZM361.302 107.876C361.256 108.333 361.096 108.688 360.822 108.94C360.547 109.214 360.193 109.351 359.758 109.351C359.529 109.351 359.312 109.317 359.106 109.248C358.671 109.592 358.156 109.855 357.562 110.038C356.967 110.221 356.406 110.404 355.88 110.587C355.24 110.564 354.61 110.507 353.993 110.415C353.375 110.324 352.734 110.301 352.071 110.347C351.842 110.186 351.602 110.083 351.35 110.038C351.099 109.992 350.836 109.958 350.561 109.935C350.309 109.935 350.058 109.9 349.806 109.832C349.577 109.763 349.348 109.603 349.12 109.351H347.404C347.244 109.351 347.003 109.271 346.683 109.111C346.386 108.974 346.043 108.825 345.654 108.665C345.288 108.505 344.887 108.356 344.453 108.219C344.041 108.082 343.652 108.013 343.286 108.013H343.08C342.828 107.807 342.531 107.647 342.188 107.533C341.867 107.441 341.536 107.35 341.192 107.258C340.849 107.189 340.518 107.109 340.197 107.018C339.877 106.926 339.602 106.8 339.374 106.64C339.145 106.48 338.882 106.32 338.584 106.16C338.287 105.977 337.978 105.897 337.658 105.92C337.223 105.668 336.766 105.451 336.285 105.268C335.828 105.085 335.359 104.913 334.878 104.753L333.471 104.238C333.014 104.055 332.556 103.838 332.098 103.586C332.03 103.609 331.95 103.609 331.858 103.586C331.767 103.563 331.687 103.552 331.618 103.552C331.481 103.552 331.401 103.598 331.378 103.689C331.218 103.529 331.035 103.392 330.829 103.277C330.646 103.163 330.463 103.026 330.28 102.865C330.188 102.888 330.097 102.911 330.005 102.934C329.936 102.934 329.845 102.934 329.731 102.934C329.525 102.934 329.319 102.911 329.113 102.865C328.93 102.82 328.747 102.763 328.564 102.694C328.358 103.151 328.221 103.666 328.152 104.238C328.083 104.81 328.026 105.405 327.98 106.023C327.958 106.617 327.923 107.212 327.877 107.807C327.832 108.425 327.729 108.985 327.569 109.489C327.614 109.672 327.637 109.855 327.637 110.038V110.621C327.637 111.01 327.694 111.319 327.809 111.548C327.763 111.754 327.717 111.948 327.672 112.131C327.649 112.314 327.614 112.497 327.569 112.68C327.592 112.932 327.603 113.161 327.603 113.366C327.626 113.595 327.637 113.835 327.637 114.087V114.671C327.637 114.876 327.614 115.082 327.569 115.288C327.34 115.425 327.111 115.551 326.882 115.666C326.654 115.803 326.425 115.963 326.196 116.146C326.036 115.849 325.761 115.677 325.372 115.631C325.281 115.746 325.212 115.894 325.166 116.078C325.144 116.283 325.041 116.386 324.858 116.386C324.537 116.135 324.274 115.929 324.068 115.769C323.862 115.609 323.634 115.368 323.382 115.048C323.359 115.002 323.348 114.945 323.348 114.876C323.348 114.762 323.371 114.659 323.416 114.568C323.462 114.476 323.485 114.385 323.485 114.293C323.485 114.018 323.451 113.778 323.382 113.572C323.336 113.275 323.302 112.978 323.279 112.68C323.256 112.406 323.245 112.131 323.245 111.857C323.245 111.468 323.268 111.09 323.313 110.724C323.382 110.358 323.496 109.981 323.656 109.592C323.908 108.928 324.08 108.23 324.171 107.498C324.286 106.766 324.366 106.034 324.411 105.302C324.457 104.547 324.48 103.792 324.48 103.037C324.503 102.282 324.549 101.561 324.617 100.875C324.457 100.509 324.263 100.223 324.034 100.017C323.828 99.7884 323.725 99.4338 323.725 98.9533C323.725 98.5186 323.862 98.1869 324.137 97.9581C324.411 97.7065 324.652 97.4091 324.858 97.0659C324.812 96.9286 324.846 96.8371 324.961 96.7914L325.372 93.1881C325.395 92.9364 325.43 92.6619 325.475 92.3645C325.544 92.0671 325.59 91.7925 325.613 91.5409C325.658 91.0147 325.681 90.4999 325.681 89.9966C325.681 89.4933 325.704 88.99 325.75 88.4867C325.864 87.3656 325.967 86.256 326.059 85.1579C326.173 84.0598 326.23 82.9616 326.23 81.8635C326.23 81.3373 326.207 80.8111 326.162 80.2849C326.139 79.7587 326.07 79.2325 325.956 78.7063C325.567 78.8207 325.132 78.9465 324.652 79.0838C324.194 79.1982 323.805 79.4041 323.485 79.7015H323.21C322.616 79.7015 322.055 79.8159 321.529 80.0447C321.026 80.2735 320.511 80.4908 319.985 80.6967C319.756 80.8111 319.527 80.8912 319.298 80.9369C319.069 80.9598 318.829 81.0056 318.578 81.0742C318.463 81.0971 318.337 81.1657 318.2 81.2801C318.063 81.3945 317.937 81.4746 317.823 81.5203L317.239 81.6576C317.079 81.7033 317.01 81.8063 317.033 81.9664C317.056 82.1266 316.999 82.2295 316.862 82.2753C316.747 82.3897 316.587 82.4469 316.381 82.4469C316.175 82.424 316.015 82.4125 315.901 82.4125H315.764C315.192 82.8244 314.643 83.179 314.116 83.4764C313.567 83.7509 312.927 83.9339 312.195 84.0254L311.44 84.5059C311.188 84.666 310.902 84.7461 310.582 84.7461C310.33 84.7461 310.124 84.7003 309.964 84.6088C309.781 84.3343 309.644 84.0254 309.552 83.6823C309.438 83.3391 309.255 83.0417 309.003 82.79C309.118 82.6756 309.198 82.5269 309.243 82.3439C309.266 82.138 309.301 81.955 309.346 81.7948C310.033 81.4974 310.73 81.2115 311.44 80.9369C312.126 80.6624 312.789 80.3307 313.43 79.9417C313.499 79.9646 313.602 79.976 313.739 79.976C313.968 79.976 314.174 79.9417 314.357 79.8731C314.54 79.8045 314.723 79.7244 314.906 79.6329C315.089 79.5414 315.272 79.4613 315.455 79.3927C315.638 79.324 315.855 79.3011 316.107 79.324C316.885 78.8893 317.708 78.5347 318.578 78.2602C319.447 77.9857 320.271 77.6082 321.048 77.1277C321.163 77.1277 321.254 77.1506 321.323 77.1964C321.414 77.2421 321.506 77.265 321.597 77.265C321.689 77.265 321.746 77.2536 321.769 77.2307C321.906 77.0477 322.089 76.9218 322.318 76.8532C322.547 76.7617 322.776 76.6931 323.004 76.6473C323.256 76.5787 323.485 76.4986 323.691 76.4071C323.92 76.2927 324.068 76.1211 324.137 75.8923C324.251 75.9838 324.423 76.0296 324.652 76.0296C325.041 76.0296 325.395 75.9495 325.716 75.7894C326.059 75.6292 326.425 75.5492 326.814 75.5492C326.905 75.5492 326.985 75.572 327.054 75.6178C327.145 75.6407 327.237 75.6521 327.328 75.6521C327.511 75.6521 327.603 75.5949 327.603 75.4805C327.626 75.3661 327.694 75.2632 327.809 75.1717C329.204 74.92 330.589 74.6912 331.961 74.4853C333.357 74.2794 334.764 74.1765 336.182 74.1765C336.388 74.0392 336.617 73.9706 336.869 73.9706C337.12 73.9706 337.349 74.0392 337.555 74.1765C337.944 74.1307 338.333 74.0964 338.722 74.0735C339.111 74.0506 339.499 74.0392 339.888 74.0392C340.781 74.0392 341.696 74.0964 342.634 74.2108C343.572 74.3252 344.498 74.5082 345.413 74.7599C346.351 74.9886 347.244 75.3089 348.09 75.7207C348.937 76.1097 349.726 76.5787 350.458 77.1277C350.527 77.3336 350.618 77.5395 350.733 77.7454C350.847 77.9513 350.996 78.1115 351.179 78.2259C351.179 78.2716 351.167 78.3059 351.144 78.3288C351.144 78.3517 351.144 78.386 351.144 78.4318C351.144 78.6834 351.213 78.9237 351.35 79.1524C351.51 79.3812 351.591 79.6558 351.591 79.976C351.591 80.2963 351.533 80.6166 351.419 80.9369C351.327 81.2572 351.293 81.5775 351.316 81.8978C351.064 82.2638 350.847 82.5956 350.664 82.893C350.504 83.1904 350.401 83.5679 350.355 84.0254C349.943 84.4372 349.577 84.8948 349.257 85.3981C348.937 85.8786 348.605 86.359 348.262 86.8394C347.941 87.297 347.575 87.7202 347.164 88.1092C346.752 88.4981 346.26 88.8069 345.688 89.0357C345.665 89.2645 345.574 89.5162 345.413 89.7907H344.693C344.624 89.9737 344.51 90.111 344.35 90.2025L343.869 90.477C343.709 90.5685 343.572 90.6829 343.457 90.8202C343.366 90.9575 343.32 91.1519 343.32 91.4036C343.274 91.3807 343.217 91.3693 343.149 91.3693C342.92 91.3693 342.645 91.4837 342.325 91.7124C342.028 91.9412 341.787 92.1243 341.604 92.2615C341.215 92.5361 340.815 92.7877 340.403 93.0165C340.014 93.2453 339.671 93.5656 339.374 93.9774C338.459 94.3663 337.589 94.8239 336.766 95.35C335.942 95.8534 335.05 96.2537 334.089 96.5511C333.723 96.9401 333.288 97.2489 332.785 97.4777C332.304 97.6836 331.835 97.9124 331.378 98.164V98.267C331.378 98.45 331.446 98.633 331.584 98.8161C331.721 98.9762 331.881 99.1249 332.064 99.2622C332.247 99.3766 332.442 99.4566 332.648 99.5024C332.876 99.5482 333.071 99.5482 333.231 99.5024C333.688 99.9142 334.215 100.246 334.81 100.498C335.404 100.749 336.022 100.978 336.663 101.184C337.303 101.39 337.932 101.607 338.55 101.836C339.168 102.065 339.74 102.351 340.266 102.694H341.09C341.616 103.151 342.233 103.495 342.943 103.723C343.675 103.952 344.373 104.158 345.036 104.341C345.311 104.593 345.654 104.787 346.065 104.924C346.5 105.039 346.912 105.096 347.301 105.096H347.507C347.598 105.096 347.678 105.085 347.747 105.062V105.13C347.747 105.245 347.781 105.325 347.85 105.371C347.919 105.393 347.987 105.416 348.056 105.439C348.147 105.439 348.227 105.462 348.296 105.508C348.388 105.531 348.456 105.577 348.502 105.645H348.845C349.326 105.645 349.783 105.748 350.218 105.954C350.653 106.137 351.11 106.229 351.591 106.229C351.796 106.229 351.957 106.206 352.071 106.16C352.208 106.206 352.311 106.297 352.38 106.434C352.448 106.572 352.54 106.686 352.654 106.778C352.814 106.755 352.963 106.732 353.1 106.709C353.238 106.709 353.375 106.709 353.512 106.709C354.016 106.709 354.485 106.766 354.919 106.881C355.354 106.995 355.8 107.167 356.258 107.395C356.99 107.075 357.71 106.812 358.42 106.606C359.129 106.4 359.884 106.297 360.685 106.297V106.366C360.685 106.64 360.753 106.892 360.89 107.121C361.051 107.372 361.188 107.624 361.302 107.876ZM348.159 80.4908C348.159 80.2163 348.102 79.9989 347.987 79.8388C347.896 79.6786 347.77 79.5414 347.61 79.427C347.45 79.2897 347.278 79.1639 347.095 79.0495C346.935 78.9351 346.786 78.7864 346.649 78.6034C346.054 78.4203 345.471 78.2144 344.899 77.9857C344.327 77.7569 343.743 77.5624 343.149 77.4023C342.851 77.3336 342.554 77.2764 342.256 77.2307C341.959 77.162 341.661 77.1277 341.364 77.1277H340.609C340.472 77.1049 340.323 77.082 340.163 77.0591C340.026 77.0133 339.888 76.979 339.751 76.9561C339.431 76.9104 339.111 76.8761 338.79 76.8532C338.493 76.8303 338.184 76.8189 337.864 76.8189C337.269 76.8189 336.674 76.8418 336.079 76.8875L334.295 77.0248C334.043 77.0477 333.78 77.0591 333.505 77.0591C333.231 77.0591 332.979 77.082 332.75 77.1277C332.636 77.1506 332.476 77.2078 332.27 77.2993C332.064 77.368 331.847 77.448 331.618 77.5395C331.389 77.6082 331.16 77.6882 330.932 77.7798C330.726 77.8713 330.543 77.9399 330.383 77.9857C330.405 78.1458 330.417 78.3059 330.417 78.4661V78.9122C330.417 79.2554 330.405 79.5986 330.383 79.9417C330.36 80.2849 330.314 80.6281 330.245 80.9712C330.222 81.1085 330.188 81.2458 330.142 81.383C330.097 81.5203 330.062 81.6576 330.039 81.7948C329.994 82.0007 329.971 82.2295 329.971 82.4812V83.1332C329.925 83.6594 329.891 84.1742 329.868 84.6775C329.845 85.1808 329.811 85.6955 329.765 86.2217C329.628 87.7317 329.479 89.2302 329.319 90.7173C329.182 92.2043 329.09 93.7028 329.044 95.2128C329.799 95.0526 330.52 94.8124 331.206 94.4921C331.893 94.1718 332.567 93.8287 333.231 93.4626C333.894 93.0737 334.558 92.6962 335.221 92.3302C335.885 91.9641 336.583 91.6553 337.315 91.4036C337.498 91.1519 337.715 90.946 337.967 90.7859C338.241 90.6257 338.47 90.4198 338.653 90.1682C338.882 90.1682 339.053 90.1224 339.168 90.0309C339.282 89.9165 339.431 89.8365 339.614 89.7907C340.712 88.8298 341.833 87.9261 342.977 87.0797C344.121 86.2332 345.219 85.3295 346.271 84.3686C346.363 84.0483 346.512 83.7395 346.718 83.4421C346.946 83.1218 347.164 82.8015 347.37 82.4812C347.575 82.1609 347.758 81.8406 347.919 81.5203C348.079 81.2 348.159 80.8568 348.159 80.4908ZM383.574 73.7647C383.391 73.8791 383.196 73.9477 382.991 73.9706C382.785 73.9934 382.567 74.0278 382.339 74.0735C382.133 74.0964 381.938 74.1422 381.755 74.2108C381.572 74.2794 381.435 74.4053 381.343 74.5883C381.115 74.3595 380.863 74.165 380.588 74.0049C380.314 73.8447 380.039 73.6732 379.765 73.4901C379.536 73.5588 379.307 73.6503 379.078 73.7647C378.85 73.8791 378.621 73.9363 378.392 73.9363C378.232 73.9363 378.072 73.8791 377.912 73.7647C377.729 73.9019 377.511 74.0163 377.26 74.1078C377.031 74.1765 376.779 74.2451 376.505 74.3137C376.253 74.3824 376.013 74.4739 375.784 74.5883C375.578 74.7027 375.429 74.8743 375.338 75.103C375.292 74.9886 375.178 74.9543 374.995 75.0001C374.835 75.0458 374.743 74.9886 374.72 74.8285C373.988 75.0802 373.245 75.2975 372.49 75.4805C371.735 75.6635 370.98 75.858 370.225 76.0639C369.47 76.2698 368.726 76.4986 367.994 76.7502C367.262 77.0019 366.553 77.3108 365.866 77.6768C365.843 77.6997 365.832 77.734 365.832 77.7798C365.832 78.0085 365.866 78.2259 365.935 78.4318C366.004 78.6377 366.061 78.8321 366.107 79.0152C365.695 80.4107 365.42 81.8292 365.283 83.2705C365.146 84.7118 364.963 86.1302 364.734 87.5258V87.663C364.734 87.7774 364.78 87.8689 364.871 87.9376C364.963 87.9833 365.008 88.0748 365.008 88.2121L364.974 88.2808C364.86 88.3494 364.78 88.4523 364.734 88.5896C364.688 88.704 364.665 88.8298 364.665 88.9671C364.665 89.0586 364.688 89.1959 364.734 89.3789C364.345 90.6829 364.082 92.0099 363.945 93.3597C363.83 94.7095 363.682 96.0593 363.499 97.4091L363.19 99.674C363.144 99.8113 363.098 99.9485 363.052 100.086C363.03 100.2 363.018 100.326 363.018 100.463C363.018 101.195 363.064 101.916 363.155 102.625C363.27 103.312 363.304 104.021 363.258 104.753C363.464 105.073 363.567 105.382 363.567 105.679C363.567 105.794 363.556 105.908 363.533 106.023C363.533 106.137 363.521 106.251 363.499 106.366C363.796 106.663 364.139 106.869 364.528 106.984C364.94 107.121 365.306 107.327 365.626 107.601V107.738C365.626 107.967 365.592 108.185 365.523 108.391C365.455 108.619 365.397 108.848 365.352 109.077C365.306 109.26 365.249 109.523 365.18 109.866C365.134 110.209 365.066 110.438 364.974 110.552C364.86 110.713 364.688 110.85 364.459 110.964C364.253 111.102 364.048 111.17 363.842 111.17C363.773 111.17 363.67 111.136 363.533 111.067C363.418 110.999 363.327 110.941 363.258 110.896C363.144 110.896 362.995 110.953 362.812 111.067C362.629 111.182 362.446 111.239 362.263 111.239C362.172 111.239 362.092 111.227 362.023 111.204C361.954 111.204 361.874 111.182 361.783 111.136C361.691 110.907 361.554 110.701 361.371 110.518C361.211 110.358 361.016 110.198 360.787 110.038C360.81 109.717 360.753 109.477 360.616 109.317C360.479 109.157 360.341 108.951 360.204 108.699C360.158 108.379 360.113 108.013 360.067 107.601C360.044 107.189 359.872 106.892 359.552 106.709C359.666 106.549 359.724 106.331 359.724 106.057C359.724 105.943 359.701 105.817 359.655 105.679C359.632 105.542 359.563 105.439 359.449 105.371V105.302C359.426 105.188 359.461 105.108 359.552 105.062C359.666 104.993 359.724 104.902 359.724 104.787V104.65C359.563 103.918 359.483 103.151 359.483 102.351C359.483 101.596 359.506 100.852 359.552 100.12C359.598 99.3651 359.598 98.6102 359.552 97.8552C359.689 97.7408 359.792 97.5578 359.861 97.3061C359.952 97.0545 360.021 96.7799 360.067 96.4825C360.113 96.1851 360.135 95.8991 360.135 95.6246C360.158 95.3272 360.181 95.087 360.204 94.9039C360.318 93.5999 360.501 92.3187 360.753 91.0604C361.005 89.7793 361.154 88.4752 361.199 87.1483C361.314 86.9653 361.382 86.725 361.405 86.4276C361.428 86.1302 361.439 85.8214 361.439 85.5011C361.439 85.1579 361.462 84.8262 361.508 84.5059C361.554 84.1856 361.645 83.9111 361.783 83.6823C361.783 83.0417 361.84 82.4011 361.954 81.7605C362.069 81.0971 362.126 80.4336 362.126 79.7701C362.126 79.4498 362.092 79.1181 362.023 78.7749C361.794 78.6834 361.588 78.6377 361.405 78.6377C361.154 78.6377 360.89 78.6949 360.616 78.8093C360.364 78.9008 360.181 79.0495 360.067 79.2554C359.563 79.2783 359.072 79.3583 358.591 79.4956C358.111 79.6329 357.63 79.7015 357.15 79.7015H356.807C356.715 79.7015 356.612 79.6901 356.498 79.6672C356.338 79.7358 356.166 79.793 355.983 79.8388C355.823 79.8845 355.754 80.0218 355.777 80.2506C355.068 80.3192 354.37 80.4679 353.684 80.6967C353.02 80.9255 352.357 81.1771 351.693 81.4517C351.03 81.7033 350.367 81.9435 349.703 82.1723C349.017 82.4011 348.319 82.5498 347.61 82.6184C347.358 82.7328 347.198 82.9731 347.129 83.3391C346.626 83.2933 346.203 83.1675 345.86 82.9616C345.516 82.7557 345.116 82.5613 344.658 82.3782C344.521 81.8978 344.453 81.4402 344.453 81.0056C344.453 80.4336 344.567 79.8845 344.796 79.3583C345.025 78.8321 345.391 78.4432 345.894 78.1916C346.008 78.2144 346.111 78.2373 346.203 78.2602C346.294 78.2602 346.397 78.2602 346.512 78.2602C346.878 78.2602 347.244 78.1916 347.61 78.0543C347.976 77.917 348.353 77.8484 348.742 77.8484C348.857 77.8484 348.982 77.8827 349.12 77.9513C349.28 77.8598 349.486 77.7912 349.737 77.7454C349.966 77.6768 350.184 77.6196 350.389 77.5739C350.618 77.5052 350.824 77.4137 351.007 77.2993C351.19 77.1849 351.305 77.0248 351.35 76.8189C351.465 76.9104 351.591 76.9676 351.728 76.9905C351.865 77.0133 352.002 77.0248 352.14 77.0248C352.437 77.0248 352.746 76.9676 353.066 76.8532C353.386 76.7388 353.638 76.5558 353.821 76.3041C353.981 76.4871 354.21 76.5787 354.507 76.5787C354.828 76.5787 355.137 76.4986 355.434 76.3384C355.754 76.1554 356.063 76.0639 356.361 76.0639C356.589 76.0639 356.761 76.144 356.875 76.3041C357.127 76.0982 357.424 75.9381 357.768 75.8237C358.111 75.7093 358.454 75.6063 358.797 75.5148C359.163 75.4233 359.495 75.3204 359.792 75.206C360.113 75.0916 360.364 74.9314 360.547 74.7255C360.662 74.7484 360.845 74.7599 361.096 74.7599C361.485 74.7599 361.851 74.7141 362.194 74.6226C362.561 74.5082 362.927 74.4053 363.293 74.3137L364.013 74.2451C364.196 74.2222 364.356 74.165 364.494 74.0735C364.654 73.982 364.814 73.9019 364.974 73.8333C365.134 73.7647 365.294 73.7075 365.455 73.6617C365.638 73.616 365.855 73.6045 366.107 73.6274C366.656 73.33 367.239 73.1012 367.857 72.9411C368.474 72.7809 369.104 72.6436 369.744 72.5293C370.385 72.392 371.014 72.2433 371.632 72.0831C372.249 71.9001 372.833 71.637 373.382 71.2938H373.485C373.942 71.2938 374.388 71.2138 374.823 71.0536C375.281 70.8935 375.704 70.6761 376.093 70.4016C376.161 70.4245 376.23 70.4359 376.299 70.4359H376.539C377.18 70.4359 377.797 70.3444 378.392 70.1614C379.01 69.9784 379.65 69.8869 380.314 69.8869C380.703 69.8869 381.012 69.944 381.24 70.0584C381.469 70.1499 381.675 70.2758 381.858 70.4359C382.041 70.5732 382.236 70.7105 382.441 70.8477C382.647 70.985 382.91 71.0879 383.231 71.1566C383.437 71.5455 383.54 71.9687 383.54 72.4263C383.54 72.861 383.551 73.3071 383.574 73.7647ZM403.032 74.7255C402.894 74.9543 402.791 75.1945 402.723 75.4462C402.677 75.6979 402.643 75.9495 402.62 76.2012H402.38C402.197 76.2012 402.036 76.1783 401.899 76.1325C401.762 76.0639 401.602 76.0067 401.419 75.961C401.51 76.8303 401.567 77.7111 401.59 78.6034C401.613 79.4956 401.625 80.3764 401.625 81.2458C401.625 82.3439 401.613 83.4421 401.59 84.5402C401.567 85.6155 401.556 86.7022 401.556 87.8003C401.556 88.3265 401.522 88.8527 401.453 89.3789C401.407 89.8822 401.27 90.3741 401.041 90.8545C401.087 91.2435 401.121 91.6209 401.144 91.987C401.167 92.3302 401.179 92.6962 401.179 93.0851C401.179 94.1604 401.11 95.2357 400.973 96.3109C400.858 97.3633 400.71 98.4157 400.527 99.4681C400.458 99.8799 400.389 100.303 400.321 100.738C400.275 101.15 400.195 101.55 400.08 101.939C400.035 102.053 399.966 102.168 399.875 102.282C399.806 102.396 399.749 102.511 399.703 102.625C399.428 103.22 399.12 103.815 398.776 104.41C398.456 104.982 398.067 105.508 397.61 105.988C397.266 106.011 396.935 106.103 396.614 106.263C396.294 106.423 395.997 106.503 395.722 106.503C395.47 106.503 395.265 106.377 395.104 106.126L394.761 106.263C394.647 106.309 394.521 106.343 394.384 106.366C393.606 106.046 392.862 105.657 392.153 105.199C391.467 104.741 390.895 104.147 390.437 103.415H390.3C390.094 103.415 389.945 103.369 389.854 103.277C389.74 103.163 389.614 103.026 389.476 102.865C389.362 102.682 389.259 102.522 389.168 102.385C388.893 101.95 388.596 101.516 388.275 101.081C387.955 100.646 387.578 100.28 387.143 99.9828C386.96 99.2965 386.685 98.7131 386.319 98.2327C385.953 97.7294 385.576 97.1917 385.187 96.6198C384.889 95.4759 384.34 94.4121 383.54 93.4283C383.654 93.3139 383.711 93.2338 383.711 93.1881C383.711 93.0737 383.665 92.9822 383.574 92.9135C383.505 92.822 383.471 92.7305 383.471 92.639C383.471 92.5475 383.494 92.4789 383.54 92.4331C383.242 92.1128 382.991 91.7582 382.785 91.3693C382.602 90.9575 382.419 90.5457 382.236 90.1339C382.075 89.7221 381.892 89.3103 381.687 88.8985C381.503 88.4867 381.275 88.1092 381 87.766C380.749 87.9261 380.588 88.1206 380.52 88.3494C380.474 88.5782 380.451 88.8184 380.451 89.07C380.451 89.2531 380.451 89.4361 380.451 89.6191C380.474 89.8021 380.485 89.9852 380.485 90.1682C380.485 90.6257 380.428 91.0719 380.314 91.5065C380.222 91.9412 380.154 92.3873 380.108 92.8449C380.085 93.1652 380.074 93.5198 380.074 93.9087C380.096 94.2977 380.085 94.6866 380.039 95.0755C380.016 95.4644 379.959 95.8419 379.868 96.208C379.776 96.574 379.616 96.8829 379.387 97.1345C379.25 98.4386 379.078 99.7426 378.873 101.047C378.667 102.351 378.472 103.655 378.289 104.959C378.243 105.188 378.198 105.474 378.152 105.817C378.106 106.16 378.049 106.503 377.98 106.846C377.935 107.212 377.889 107.555 377.843 107.876C377.82 108.219 377.809 108.493 377.809 108.699C377.809 108.928 377.866 109.145 377.98 109.351C378.095 109.58 378.152 109.797 378.152 110.003C378.152 110.164 378.095 110.255 377.98 110.278C377.889 110.324 377.832 110.415 377.809 110.552C377.969 111.056 378.049 111.628 378.049 112.268C378.049 112.451 378.037 112.634 378.015 112.817C377.992 113.023 377.957 113.218 377.912 113.401C377.866 113.515 377.786 113.618 377.671 113.71C377.557 113.824 377.5 113.927 377.5 114.018C377.5 114.11 377.546 114.179 377.637 114.224C377.5 114.362 377.328 114.453 377.122 114.499C376.916 114.545 376.768 114.671 376.676 114.876C376.447 114.693 376.219 114.522 375.99 114.362C375.761 114.224 375.544 114.064 375.338 113.881L375.235 113.847C375.075 113.847 374.938 113.893 374.823 113.984C374.732 114.099 374.606 114.156 374.446 114.156C374.4 114.156 374.354 114.144 374.308 114.121C374.285 114.121 374.251 114.121 374.205 114.121L374 113.229C373.931 112.932 373.839 112.657 373.725 112.406C373.908 111.925 374.022 111.376 374.068 110.758C374.137 110.164 374.205 109.557 374.274 108.94C374.343 108.322 374.446 107.727 374.583 107.155C374.72 106.606 374.972 106.126 375.338 105.714C375.338 105.531 375.269 105.405 375.132 105.336C375.018 105.268 374.96 105.119 374.96 104.89C374.96 104.844 374.972 104.764 374.995 104.65C375.04 104.536 375.075 104.41 375.098 104.272C375.143 104.135 375.178 104.009 375.201 103.895C375.246 103.758 375.281 103.655 375.304 103.586C375.487 102.694 375.624 101.779 375.715 100.841C375.83 99.9028 376.116 99.0334 376.573 98.2327C376.55 98.1412 376.539 98.0039 376.539 97.8209C376.539 97.4319 376.573 97.0545 376.642 96.6884C376.733 96.3224 376.779 95.9449 376.779 95.556C376.779 95.2357 376.745 94.9382 376.676 94.6637C376.745 94.4121 376.836 94.1718 376.951 93.9431C377.088 93.6914 377.157 93.4397 377.157 93.1881C377.157 92.9593 377.077 92.7992 376.916 92.7076C377.031 92.6161 377.099 92.5132 377.122 92.3988C377.168 92.2844 377.191 92.17 377.191 92.0556C377.214 91.9412 377.237 91.8383 377.26 91.7468C377.305 91.6324 377.397 91.5409 377.534 91.4722C377.511 91.2435 377.488 91.0261 377.466 90.8202C377.466 90.6143 377.466 90.397 377.466 90.1682C377.466 89.3217 377.511 88.4867 377.603 87.663C377.694 86.8166 377.74 85.9586 377.74 85.0893C377.74 84.2428 377.671 83.4192 377.534 82.6184L377.912 81.8635C377.683 81.6805 377.534 81.383 377.466 80.9712C377.397 80.5594 377.351 80.1133 377.328 79.6329C377.305 79.1524 377.26 78.6834 377.191 78.2259C377.145 77.7454 377.019 77.3565 376.813 77.0591V76.7502C376.813 76.3842 376.791 76.0296 376.745 75.6864C376.699 75.3432 376.676 75.0001 376.676 74.6569V74.3481C376.791 74.3023 376.871 74.2222 376.916 74.1078C376.985 73.9934 377.031 73.8791 377.054 73.7647H377.191C377.466 73.7647 377.74 73.7418 378.015 73.696C378.289 73.6503 378.564 73.6274 378.838 73.6274H379.284C379.559 73.8333 379.799 74.0735 380.005 74.3481C380.211 74.6226 380.463 74.8743 380.76 75.103V75.7207C380.966 75.9953 381.126 76.2927 381.24 76.613C381.355 76.9333 381.469 77.265 381.584 77.6082C381.721 77.9513 381.858 78.2831 381.995 78.6034C382.133 78.9237 382.327 79.1982 382.579 79.427C382.533 79.6558 382.51 79.8388 382.51 79.976C382.51 80.2735 382.533 80.5709 382.579 80.8683C382.647 81.1657 382.693 81.4517 382.716 81.7262C382.808 81.8406 382.888 81.9893 382.956 82.1723C383.025 82.3325 383.139 82.4354 383.299 82.4812C383.414 83.3734 383.643 84.2199 383.986 85.0206C384.352 85.8214 384.615 86.6564 384.775 87.5258C384.958 87.7088 385.095 87.9376 385.187 88.2121C385.278 88.4638 385.37 88.7154 385.461 88.9671C385.576 89.2187 385.69 89.459 385.805 89.6877C385.942 89.8936 386.136 90.0424 386.388 90.1339C386.525 90.6829 386.697 91.232 386.903 91.7811C387.109 92.3302 387.429 92.7992 387.864 93.1881C387.864 93.6456 387.932 94.046 388.069 94.3892C388.23 94.7095 388.401 95.0183 388.584 95.3157C388.79 95.5903 388.973 95.8648 389.133 96.1393C389.293 96.4139 389.396 96.7113 389.442 97.0316C389.762 97.512 390.128 97.9581 390.54 98.3699C390.975 98.7817 391.41 99.1821 391.844 99.571C392.302 99.9371 392.748 100.315 393.183 100.703C393.617 101.092 394.018 101.504 394.384 101.939C394.635 101.962 394.841 102.019 395.001 102.11C395.185 102.179 395.39 102.236 395.619 102.282C395.779 102.168 395.905 102.03 395.997 101.87C396.111 101.687 396.214 101.504 396.306 101.321C396.397 101.138 396.489 100.967 396.58 100.806C396.694 100.623 396.832 100.463 396.992 100.326C396.992 100.28 396.98 100.246 396.958 100.223C396.958 100.177 396.958 100.132 396.958 100.086C396.958 99.8341 396.992 99.6397 397.061 99.5024C397.152 99.3423 397.255 99.1707 397.369 98.9876V98.0954C397.552 97.7522 397.678 97.3862 397.747 96.9973C397.815 96.6083 397.85 96.2194 397.85 95.8305C397.85 95.5102 397.838 95.1899 397.815 94.8696C397.793 94.5264 397.781 94.1833 397.781 93.8401C397.781 93.6342 397.793 93.4283 397.815 93.2224C397.838 92.9936 397.884 92.7877 397.953 92.6047C397.999 92.5589 398.079 92.4903 398.193 92.3988C398.307 92.2844 398.365 92.2158 398.365 92.1929C398.365 92.0785 398.33 91.9641 398.262 91.8497C398.193 91.7353 398.159 91.6209 398.159 91.5065C398.159 91.3464 398.227 91.2206 398.365 91.1291V90.9232C398.365 90.8088 398.342 90.7058 398.296 90.6143C398.273 90.4999 398.204 90.4198 398.09 90.3741C398.204 90.2368 398.284 90.0767 398.33 89.8936C398.376 89.6877 398.399 89.4818 398.399 89.2759C398.422 89.0472 398.422 88.8298 398.399 88.6239C398.399 88.418 398.399 88.2236 398.399 88.0405C398.399 87.8346 398.41 87.6173 398.433 87.3885C398.456 87.1597 398.548 86.9653 398.708 86.8051C398.639 86.5306 398.593 86.2675 398.57 86.0158C398.548 85.7413 398.536 85.4668 398.536 85.1922C398.536 84.7118 398.559 84.2313 398.605 83.7509C398.651 83.2705 398.673 82.7786 398.673 82.2753C398.673 82.0923 398.662 81.9092 398.639 81.7262C398.616 81.5203 398.605 81.3258 398.605 81.1428C398.605 80.9598 398.639 80.8797 398.708 80.9026C398.799 80.9026 398.845 80.8454 398.845 80.731C398.845 80.5709 398.822 80.4107 398.776 80.2506C398.753 80.0904 398.731 79.9303 398.708 79.7701C398.662 79.3812 398.628 78.9923 398.605 78.6034C398.582 78.1916 398.57 77.7798 398.57 77.368C398.57 77.1163 398.57 76.8646 398.57 76.613C398.593 76.3384 398.639 76.0753 398.708 75.8237C398.57 75.6178 398.479 75.4233 398.433 75.2403C398.41 75.0344 398.387 74.8514 398.365 74.6912L398.296 74.1765C398.273 73.9934 398.204 73.8104 398.09 73.6274C398.067 73.6045 398.056 73.5359 398.056 73.4215C398.056 73.2385 398.101 73.1012 398.193 73.0097C398.079 72.6208 397.918 72.2433 397.713 71.8772C397.53 71.5112 397.415 71.1108 397.369 70.6761C397.118 70.5389 396.923 70.3215 396.786 70.0241C396.672 69.7038 396.614 69.4179 396.614 69.1662C396.614 68.8688 396.694 68.5828 396.855 68.3083C397.015 68.0109 397.266 67.8621 397.61 67.8621C397.747 67.8621 397.873 67.9079 397.987 67.9994C398.124 68.0681 398.25 68.1596 398.365 68.274C398.502 68.3655 398.628 68.457 398.742 68.5485C398.879 68.6171 399.017 68.6514 399.154 68.6514C399.245 68.6514 399.383 68.6286 399.566 68.5828C399.817 68.926 400.069 69.2463 400.321 69.5437C400.595 69.8182 400.87 70.1042 401.144 70.4016C401.144 70.7905 401.213 71.1451 401.35 71.4654C401.487 71.7857 401.636 72.0946 401.796 72.392C401.956 72.6665 402.094 72.9411 402.208 73.2156C402.345 73.4901 402.403 73.7875 402.38 74.1078C402.425 74.268 402.517 74.3824 402.654 74.451C402.791 74.5196 402.917 74.6112 403.032 74.7255ZM443.251 68.9603C443.251 69.1662 443.24 69.3721 443.217 69.578C443.217 69.7839 443.205 69.9784 443.183 70.1614C443.114 70.2758 442.977 70.3215 442.771 70.2987C442.588 70.2758 442.439 70.2643 442.325 70.2643C442.21 70.2643 442.107 70.2872 442.016 70.333C441.947 70.3558 441.913 70.4245 441.913 70.5389C441.913 70.6761 441.924 70.7677 441.947 70.8134C441.764 70.7905 441.57 70.7677 441.364 70.7448C441.158 70.7219 440.975 70.6533 440.815 70.5389C440.494 70.6075 440.186 70.699 439.888 70.8134C439.614 70.9278 439.339 71.0536 439.064 71.1909C438.79 71.3282 438.504 71.454 438.207 71.5684C437.909 71.6828 437.6 71.7514 437.28 71.7743C437.074 72.0031 436.811 72.1746 436.491 72.289C436.17 72.4034 435.839 72.5064 435.496 72.5979C435.152 72.6894 434.832 72.8038 434.535 72.9411C434.237 73.0555 433.997 73.2385 433.814 73.4901C433.311 73.5359 432.83 73.6617 432.373 73.8676C431.915 74.0735 431.458 74.2909 431 74.5196C430.565 74.7484 430.119 74.9658 429.662 75.1717C429.204 75.3776 428.712 75.5148 428.186 75.5835C428.049 75.7207 427.877 75.8351 427.671 75.9266C427.488 76.0182 427.294 76.1097 427.088 76.2012C426.882 76.2698 426.688 76.3499 426.504 76.4414C426.321 76.5329 426.173 76.6587 426.058 76.8189H425.99C425.898 76.8189 425.83 76.796 425.784 76.7502C425.738 76.7045 425.669 76.6816 425.578 76.6816C425.509 76.6816 425.464 76.6931 425.441 76.7159C424.892 76.9676 424.343 77.2307 423.793 77.5052C423.244 77.7798 422.672 78.0429 422.078 78.2945C420.911 78.7749 419.733 79.2439 418.543 79.7015C417.353 80.1591 416.209 80.7196 415.111 81.383C414.86 82.2982 414.654 83.2362 414.494 84.197C414.333 85.135 414.047 86.0387 413.636 86.9081V88.521C413.407 88.9557 413.258 89.4361 413.189 89.9623C413.121 90.4885 413.087 90.9918 413.087 91.4722C413.087 91.6553 413.087 91.8268 413.087 91.987C413.109 92.1243 413.121 92.273 413.121 92.4331C413.784 92.2501 414.425 92.0442 415.043 91.8154C415.683 91.5866 416.324 91.3807 416.964 91.1977C417.285 91.0833 417.605 91.0032 417.925 90.9575C418.268 90.9117 418.6 90.8316 418.92 90.7173C419.172 90.6486 419.435 90.5571 419.71 90.4427C419.984 90.3055 420.247 90.1796 420.499 90.0652C421.185 89.7678 421.883 89.5047 422.592 89.2759C423.324 89.0472 424.068 88.8756 424.823 88.7612C425.052 88.5782 425.303 88.4066 425.578 88.2464C425.852 88.0863 426.127 88.0062 426.402 88.0062C426.607 88.0062 426.779 88.0405 426.916 88.1092C427.305 87.8804 427.763 87.6745 428.289 87.4915C428.815 87.3084 429.307 87.2398 429.765 87.2856C429.879 87.1254 430.016 87.0225 430.176 86.9767C430.337 86.9081 430.508 86.8738 430.691 86.8738C430.783 86.8738 430.863 86.8852 430.931 86.9081C431.023 86.9081 431.126 86.9081 431.24 86.9081C431.469 86.7479 431.721 86.6335 431.995 86.5649C432.27 86.4963 432.544 86.4391 432.819 86.3933C433.093 86.3476 433.356 86.2904 433.608 86.2217C433.883 86.1302 434.123 85.993 434.329 85.8099C434.649 85.8328 434.901 85.9243 435.084 86.0845C435.29 86.2446 435.461 86.4391 435.598 86.6679C435.736 86.8966 435.85 87.1369 435.942 87.3885C436.033 87.6402 436.148 87.8804 436.285 88.1092C436.239 88.2922 436.17 88.4409 436.079 88.5553C435.987 88.6468 435.884 88.7383 435.77 88.8298C435.656 88.9213 435.553 89.0128 435.461 89.1044C435.37 89.1959 435.313 89.3217 435.29 89.4818C434.489 89.4818 433.711 89.5962 432.956 89.825C432.224 90.0538 431.492 90.3169 430.76 90.6143C430.051 90.9117 429.318 91.1977 428.563 91.4722C427.831 91.7239 427.076 91.884 426.299 91.9527C426.184 92.0671 426.035 92.1586 425.852 92.2272L425.338 92.3988C425.178 92.4445 425.029 92.5132 424.892 92.6047C424.754 92.6733 424.651 92.7877 424.583 92.9479C424.445 92.8792 424.297 92.8449 424.137 92.8449C423.748 92.8449 423.37 92.9479 423.004 93.1538C422.638 93.3597 422.226 93.4626 421.769 93.4626C421.586 93.4626 421.46 93.4512 421.391 93.4283C421.277 93.6342 421.105 93.7829 420.876 93.8744C420.671 93.9659 420.442 94.046 420.19 94.1146C419.961 94.1604 419.733 94.229 419.504 94.3205C419.298 94.4121 419.138 94.5722 419.023 94.801C418.955 94.7781 418.875 94.7667 418.783 94.7667H418.577C418.211 94.7667 417.788 94.8353 417.308 94.9726C416.85 95.087 416.518 95.3157 416.312 95.6589C416.129 95.6131 415.969 95.5903 415.832 95.5903C415.512 95.5903 415.226 95.6589 414.974 95.7962C414.722 95.9106 414.471 96.0478 414.219 96.208L413.464 96.6884C413.212 96.8486 412.938 96.9629 412.64 97.0316C412.046 97.8781 411.634 98.8504 411.405 99.9485C411.176 101.047 411.005 102.191 410.89 103.38C410.799 104.57 410.707 105.748 410.616 106.915C410.524 108.105 410.341 109.191 410.067 110.175C410.204 110.541 410.307 110.93 410.375 111.342C410.444 111.754 410.501 112.165 410.547 112.577C410.593 113.012 410.639 113.447 410.684 113.881C410.73 114.316 410.81 114.728 410.925 115.117C411.039 115.597 411.256 116.02 411.577 116.386C411.92 116.775 412.16 117.21 412.297 117.69C412.412 117.713 412.526 117.725 412.64 117.725C412.778 117.748 412.915 117.759 413.052 117.759C413.876 117.759 414.596 117.599 415.214 117.279C415.855 116.958 416.45 116.558 416.999 116.078C417.548 115.62 418.074 115.117 418.577 114.568C419.103 114.041 419.664 113.572 420.259 113.161H420.911C421.071 112.978 421.208 112.783 421.323 112.577C421.437 112.371 421.563 112.177 421.7 111.994C421.837 111.811 421.998 111.651 422.181 111.513C422.364 111.399 422.592 111.319 422.867 111.273C422.936 110.93 423.096 110.667 423.347 110.484C423.599 110.301 423.771 110.026 423.862 109.66C423.908 109.683 423.965 109.695 424.034 109.695C424.217 109.695 424.354 109.649 424.445 109.557L424.96 109.077C425.143 108.894 425.338 108.711 425.544 108.528C425.772 108.368 425.99 108.207 426.196 108.047C426.859 107.567 427.523 107.086 428.186 106.606C428.849 106.148 429.456 105.611 430.005 104.993C430.028 105.016 430.062 105.027 430.108 105.027C430.291 105.027 430.417 104.97 430.485 104.856C430.554 104.741 430.714 104.707 430.966 104.753C431.103 104.547 431.229 104.341 431.343 104.135C431.458 103.906 431.549 103.666 431.618 103.415L432.716 103.552C433.082 103.598 433.448 103.62 433.814 103.62C433.928 103.62 434.031 103.62 434.123 103.62C434.237 103.598 434.34 103.563 434.432 103.517C434.706 103.952 434.855 104.421 434.878 104.924C434.901 105.405 434.958 105.885 435.049 106.366C435.004 106.366 434.969 106.366 434.946 106.366C434.946 106.343 434.924 106.331 434.878 106.331C434.763 106.331 434.649 106.377 434.535 106.469C434.443 106.537 434.34 106.629 434.226 106.743L433.883 107.086C433.768 107.201 433.665 107.292 433.574 107.361C433.322 107.521 433.059 107.658 432.784 107.773C432.51 107.91 432.247 108.047 431.995 108.185C431.744 108.322 431.503 108.482 431.275 108.665C431.046 108.871 430.863 109.123 430.725 109.42C430.268 109.603 429.822 109.797 429.387 110.003C428.975 110.209 428.575 110.427 428.186 110.655C428.072 110.77 427.969 110.884 427.877 110.999C427.786 111.113 427.717 111.239 427.671 111.376C427.054 111.582 426.539 111.891 426.127 112.303C425.738 112.714 425.338 113.161 424.926 113.641L424.892 113.607C424.731 113.607 424.628 113.664 424.583 113.778C424.56 113.893 424.434 113.927 424.205 113.881C423.771 114.362 423.313 114.808 422.833 115.22C422.352 115.631 421.86 116.043 421.357 116.455C420.854 116.867 420.35 117.279 419.847 117.69C419.344 118.125 418.875 118.583 418.44 119.063C418.143 119.155 417.857 119.269 417.582 119.406C417.308 119.544 417.102 119.749 416.964 120.024H416.861C416.61 120.024 416.427 120.081 416.312 120.196C416.221 120.31 416.106 120.459 415.969 120.642C415.489 120.756 414.997 120.882 414.494 121.019C413.99 121.156 413.475 121.225 412.949 121.225C412.583 121.225 412.229 121.156 411.885 121.019C411.565 120.882 411.245 120.699 410.925 120.47C410.627 120.264 410.341 120.035 410.067 119.784C409.815 119.532 409.575 119.292 409.346 119.063C409.209 118.606 409.026 118.125 408.797 117.622C408.591 117.141 408.488 116.672 408.488 116.215C408.488 116.1 408.5 115.986 408.522 115.872C408.568 115.78 408.591 115.689 408.591 115.597C408.591 115.437 408.534 115.368 408.419 115.391C408.328 115.414 408.259 115.357 408.214 115.22C408.168 114.991 408.133 114.728 408.111 114.43C408.111 114.156 408.088 113.893 408.042 113.641C407.973 113.115 407.882 112.577 407.767 112.028C407.676 111.479 407.573 110.941 407.459 110.415C407.55 110.369 407.619 110.289 407.664 110.175C407.733 110.083 407.802 109.992 407.87 109.9C407.802 109.717 407.733 109.512 407.664 109.283C407.619 109.077 407.596 108.859 407.596 108.631C407.596 108.173 407.767 107.83 408.111 107.601C408.111 107.441 408.065 107.315 407.973 107.224C407.905 107.155 407.87 107.029 407.87 106.846C407.87 106.8 407.882 106.675 407.905 106.469C407.95 106.24 407.996 105.988 408.042 105.714C408.111 105.439 408.168 105.176 408.214 104.924C408.259 104.673 408.294 104.501 408.316 104.41C408.477 103.357 408.614 102.328 408.728 101.321C408.843 100.292 409.003 99.2622 409.209 98.2327C408.98 98.0497 408.683 97.9124 408.316 97.8209C407.973 97.7065 407.733 97.5578 407.596 97.3748C407.481 97.2146 407.39 97.0087 407.321 96.757C407.253 96.5054 407.218 96.288 407.218 96.105C407.218 95.4416 407.481 94.9154 408.008 94.5264C408.534 94.1146 409.094 93.8744 409.689 93.8058C409.987 93.0051 410.204 92.1929 410.341 91.3693C410.501 90.5228 410.627 89.6763 410.719 88.8298L410.993 86.256C411.085 85.3867 411.222 84.5288 411.405 83.6823H411.199C410.742 83.6823 410.295 83.7509 409.861 83.8882C409.426 84.0254 408.98 84.0941 408.522 84.0941H408.454C407.79 83.5679 407.459 82.9387 407.459 82.2066C407.459 81.772 407.55 81.3373 407.733 80.9026C408.099 80.7653 408.431 80.5823 408.728 80.3535C409.026 80.1247 409.323 79.896 409.621 79.6672C409.941 79.4155 410.261 79.1982 410.581 79.0152C410.902 78.8321 411.256 78.7178 411.645 78.672C411.691 78.0085 411.805 77.3451 411.988 76.6816C412.171 76.0182 412.263 75.3547 412.263 74.6912C412.263 74.554 412.251 74.4167 412.229 74.2794C412.229 74.1422 412.206 74.0049 412.16 73.8676C412.32 73.6617 412.423 73.4444 412.469 73.2156C412.537 72.9868 412.572 72.7466 412.572 72.4949C412.572 72.2204 412.549 71.9573 412.503 71.7056C412.48 71.4311 412.446 71.168 412.4 70.9164C412.606 70.8248 412.766 70.7333 412.881 70.6418C412.995 70.5274 413.098 70.4245 413.189 70.333C413.304 70.2415 413.441 70.1614 413.601 70.0928C413.761 70.0241 413.99 69.9898 414.288 69.9898C414.722 69.9898 415.088 70.0813 415.386 70.2643C415.706 70.4245 415.981 70.6418 416.209 70.9164C416.438 71.1909 416.633 71.4997 416.793 71.8429C416.976 72.1861 417.147 72.5293 417.308 72.8724C417.262 73.1241 417.159 73.3071 416.999 73.4215C416.839 73.5359 416.701 73.6846 416.587 73.8676C416.633 74.2337 416.678 74.5883 416.724 74.9314C416.77 75.2517 416.77 75.5949 416.724 75.961C416.953 76.0753 417.17 76.1325 417.376 76.1325C417.719 76.1325 418.028 76.041 418.303 75.858C418.6 75.675 418.806 75.4233 418.92 75.103H418.989C419.058 75.103 419.115 75.1259 419.161 75.1717C419.229 75.2174 419.309 75.2403 419.401 75.2403H419.538C419.79 75.0115 420.064 74.8399 420.362 74.7255C420.659 74.5883 420.968 74.4624 421.288 74.3481C421.609 74.2337 421.917 74.1193 422.215 74.0049C422.535 73.8676 422.833 73.696 423.107 73.4901C423.244 73.5588 423.393 73.5931 423.553 73.5931C423.782 73.5931 423.999 73.5473 424.205 73.4558C424.434 73.3643 424.651 73.2728 424.857 73.1813C425.063 73.0669 425.281 72.9639 425.509 72.8724C425.761 72.7809 426.024 72.7352 426.299 72.7352C426.344 72.7352 426.402 72.7466 426.47 72.7695C426.539 72.7695 426.596 72.7695 426.642 72.7695C426.802 72.7695 426.893 72.7123 426.916 72.5979C426.939 72.4835 426.939 72.3806 426.916 72.289C427.648 72.106 428.278 71.9001 428.804 71.6713C429.353 71.4197 429.959 71.1337 430.623 70.8134C430.623 70.7905 430.645 70.7791 430.691 70.7791C430.76 70.7791 430.806 70.8134 430.828 70.882C430.851 70.9507 430.863 71.0079 430.863 71.0536C431 70.985 431.069 70.8706 431.069 70.7105C431.092 70.5503 431.149 70.413 431.24 70.2987C431.332 70.3215 431.458 70.333 431.618 70.333C431.824 70.333 432.03 70.2872 432.235 70.1957C432.464 70.1042 432.682 70.0012 432.887 69.8869C433.093 69.7725 433.299 69.6695 433.505 69.578C433.711 69.4865 433.917 69.4407 434.123 69.4407C434.306 69.4407 434.455 69.4865 434.569 69.578C434.706 69.5094 434.844 69.4179 434.981 69.3035C435.118 69.1662 435.267 69.0976 435.427 69.0976C435.473 69.0976 435.507 69.109 435.53 69.1319C435.576 69.1548 435.621 69.1776 435.667 69.2005C435.782 69.0861 435.884 68.9946 435.976 68.926C436.09 68.8573 436.148 68.743 436.148 68.5828C436.994 68.4913 437.772 68.3083 438.481 68.0337C439.213 67.7363 439.911 67.3474 440.574 66.867C440.826 66.9127 441.066 66.9699 441.295 67.0385C441.547 67.0843 441.798 67.1072 442.05 67.1072C442.187 67.3588 442.313 67.6105 442.428 67.8621C442.542 68.1138 442.794 68.2282 443.183 68.2053C443.205 68.3197 443.217 68.4455 443.217 68.5828C443.24 68.7201 443.251 68.8459 443.251 68.9603ZM480.451 107.876C480.405 108.333 480.245 108.688 479.97 108.94C479.696 109.214 479.341 109.351 478.907 109.351C478.678 109.351 478.46 109.317 478.254 109.248C477.82 109.592 477.305 109.855 476.71 110.038C476.115 110.221 475.555 110.404 475.029 110.587C474.388 110.564 473.759 110.507 473.141 110.415C472.524 110.324 471.883 110.301 471.22 110.347C470.991 110.186 470.751 110.083 470.499 110.038C470.247 109.992 469.984 109.958 469.71 109.935C469.458 109.935 469.206 109.9 468.955 109.832C468.726 109.763 468.497 109.603 468.268 109.351H466.552C466.392 109.351 466.152 109.271 465.832 109.111C465.534 108.974 465.191 108.825 464.802 108.665C464.436 108.505 464.036 108.356 463.601 108.219C463.189 108.082 462.8 108.013 462.434 108.013H462.228C461.977 107.807 461.679 107.647 461.336 107.533C461.016 107.441 460.684 107.35 460.341 107.258C459.998 107.189 459.666 107.109 459.346 107.018C459.026 106.926 458.751 106.8 458.522 106.64C458.293 106.48 458.03 106.32 457.733 106.16C457.436 105.977 457.127 105.897 456.806 105.92C456.372 105.668 455.914 105.451 455.434 105.268C454.976 105.085 454.507 104.913 454.027 104.753L452.62 104.238C452.162 104.055 451.705 103.838 451.247 103.586C451.178 103.609 451.098 103.609 451.007 103.586C450.915 103.563 450.835 103.552 450.767 103.552C450.629 103.552 450.549 103.598 450.526 103.689C450.366 103.529 450.183 103.392 449.977 103.277C449.794 103.163 449.611 103.026 449.428 102.865C449.337 102.888 449.245 102.911 449.154 102.934C449.085 102.934 448.994 102.934 448.879 102.934C448.673 102.934 448.467 102.911 448.261 102.865C448.078 102.82 447.895 102.763 447.712 102.694C447.506 103.151 447.369 103.666 447.301 104.238C447.232 104.81 447.175 105.405 447.129 106.023C447.106 106.617 447.072 107.212 447.026 107.807C446.98 108.425 446.877 108.985 446.717 109.489C446.763 109.672 446.786 109.855 446.786 110.038V110.621C446.786 111.01 446.843 111.319 446.957 111.548C446.912 111.754 446.866 111.948 446.82 112.131C446.797 112.314 446.763 112.497 446.717 112.68C446.74 112.932 446.752 113.161 446.752 113.366C446.774 113.595 446.786 113.835 446.786 114.087V114.671C446.786 114.876 446.763 115.082 446.717 115.288C446.488 115.425 446.26 115.551 446.031 115.666C445.802 115.803 445.573 115.963 445.345 116.146C445.184 115.849 444.91 115.677 444.521 115.631C444.429 115.746 444.361 115.894 444.315 116.078C444.292 116.283 444.189 116.386 444.006 116.386C443.686 116.135 443.423 115.929 443.217 115.769C443.011 115.609 442.782 115.368 442.531 115.048C442.508 115.002 442.496 114.945 442.496 114.876C442.496 114.762 442.519 114.659 442.565 114.568C442.611 114.476 442.633 114.385 442.633 114.293C442.633 114.018 442.599 113.778 442.531 113.572C442.485 113.275 442.45 112.978 442.428 112.68C442.405 112.406 442.393 112.131 442.393 111.857C442.393 111.468 442.416 111.09 442.462 110.724C442.531 110.358 442.645 109.981 442.805 109.592C443.057 108.928 443.228 108.23 443.32 107.498C443.434 106.766 443.514 106.034 443.56 105.302C443.606 104.547 443.629 103.792 443.629 103.037C443.652 102.282 443.697 101.561 443.766 100.875C443.606 100.509 443.411 100.223 443.183 100.017C442.977 99.7884 442.874 99.4338 442.874 98.9533C442.874 98.5186 443.011 98.1869 443.285 97.9581C443.56 97.7065 443.8 97.4091 444.006 97.0659C443.96 96.9286 443.995 96.8371 444.109 96.7914L444.521 93.1881C444.544 92.9364 444.578 92.6619 444.624 92.3645C444.692 92.0671 444.738 91.7925 444.761 91.5409C444.807 91.0147 444.83 90.4999 444.83 89.9966C444.83 89.4933 444.853 88.99 444.898 88.4867C445.013 87.3656 445.116 86.256 445.207 85.1579C445.322 84.0598 445.379 82.9616 445.379 81.8635C445.379 81.3373 445.356 80.8111 445.31 80.2849C445.287 79.7587 445.219 79.2325 445.104 78.7063C444.715 78.8207 444.281 78.9465 443.8 79.0838C443.343 79.1982 442.954 79.4041 442.633 79.7015H442.359C441.764 79.7015 441.204 79.8159 440.677 80.0447C440.174 80.2735 439.659 80.4908 439.133 80.6967C438.904 80.8111 438.676 80.8912 438.447 80.9369C438.218 80.9598 437.978 81.0056 437.726 81.0742C437.612 81.0971 437.486 81.1657 437.349 81.2801C437.211 81.3945 437.086 81.4746 436.971 81.5203L436.388 81.6576C436.228 81.7033 436.159 81.8063 436.182 81.9664C436.205 82.1266 436.148 82.2295 436.01 82.2753C435.896 82.3897 435.736 82.4469 435.53 82.4469C435.324 82.424 435.164 82.4125 435.049 82.4125H434.912C434.34 82.8244 433.791 83.179 433.265 83.4764C432.716 83.7509 432.075 83.9339 431.343 84.0254L430.588 84.5059C430.337 84.666 430.051 84.7461 429.73 84.7461C429.479 84.7461 429.273 84.7003 429.113 84.6088C428.93 84.3343 428.792 84.0254 428.701 83.6823C428.586 83.3391 428.403 83.0417 428.152 82.79C428.266 82.6756 428.346 82.5269 428.392 82.3439C428.415 82.138 428.449 81.955 428.495 81.7948C429.181 81.4974 429.879 81.2115 430.588 80.9369C431.275 80.6624 431.938 80.3307 432.579 79.9417C432.647 79.9646 432.75 79.976 432.887 79.976C433.116 79.976 433.322 79.9417 433.505 79.8731C433.688 79.8045 433.871 79.7244 434.054 79.6329C434.237 79.5414 434.42 79.4613 434.603 79.3927C434.786 79.324 435.004 79.3011 435.255 79.324C436.033 78.8893 436.857 78.5347 437.726 78.2602C438.596 77.9857 439.419 77.6082 440.197 77.1277C440.311 77.1277 440.403 77.1506 440.471 77.1964C440.563 77.2421 440.655 77.265 440.746 77.265C440.838 77.265 440.895 77.2536 440.918 77.2307C441.055 77.0477 441.238 76.9218 441.467 76.8532C441.695 76.7617 441.924 76.6931 442.153 76.6473C442.405 76.5787 442.633 76.4986 442.839 76.4071C443.068 76.2927 443.217 76.1211 443.285 75.8923C443.4 75.9838 443.571 76.0296 443.8 76.0296C444.189 76.0296 444.544 75.9495 444.864 75.7894C445.207 75.6292 445.573 75.5492 445.962 75.5492C446.054 75.5492 446.134 75.572 446.202 75.6178C446.294 75.6407 446.385 75.6521 446.477 75.6521C446.66 75.6521 446.752 75.5949 446.752 75.4805C446.774 75.3661 446.843 75.2632 446.957 75.1717C448.353 74.92 449.737 74.6912 451.11 74.4853C452.505 74.2794 453.912 74.1765 455.331 74.1765C455.537 74.0392 455.765 73.9706 456.017 73.9706C456.269 73.9706 456.498 74.0392 456.703 74.1765C457.092 74.1307 457.481 74.0964 457.87 74.0735C458.259 74.0506 458.648 74.0392 459.037 74.0392C459.929 74.0392 460.844 74.0964 461.782 74.2108C462.72 74.3252 463.647 74.5082 464.562 74.7599C465.5 74.9886 466.392 75.3089 467.239 75.7207C468.085 76.1097 468.875 76.5787 469.607 77.1277C469.675 77.3336 469.767 77.5395 469.881 77.7454C469.996 77.9513 470.144 78.1115 470.327 78.2259C470.327 78.2716 470.316 78.3059 470.293 78.3288C470.293 78.3517 470.293 78.386 470.293 78.4318C470.293 78.6834 470.362 78.9237 470.499 79.1524C470.659 79.3812 470.739 79.6558 470.739 79.976C470.739 80.2963 470.682 80.6166 470.567 80.9369C470.476 81.2572 470.442 81.5775 470.465 81.8978C470.213 82.2638 469.996 82.5956 469.813 82.893C469.652 83.1904 469.549 83.5679 469.504 84.0254C469.092 84.4372 468.726 84.8948 468.406 85.3981C468.085 85.8786 467.753 86.359 467.41 86.8394C467.09 87.297 466.724 87.7202 466.312 88.1092C465.9 88.4981 465.409 88.8069 464.837 89.0357C464.814 89.2645 464.722 89.5162 464.562 89.7907H463.841C463.773 89.9737 463.658 90.111 463.498 90.2025L463.018 90.477C462.858 90.5685 462.72 90.6829 462.606 90.8202C462.514 90.9575 462.469 91.1519 462.469 91.4036C462.423 91.3807 462.366 91.3693 462.297 91.3693C462.068 91.3693 461.794 91.4837 461.473 91.7124C461.176 91.9412 460.936 92.1243 460.753 92.2615C460.364 92.5361 459.964 92.7877 459.552 93.0165C459.163 93.2453 458.82 93.5656 458.522 93.9774C457.607 94.3663 456.738 94.8239 455.914 95.35C455.091 95.8534 454.198 96.2537 453.237 96.5511C452.871 96.9401 452.437 97.2489 451.933 97.4777C451.453 97.6836 450.984 97.9124 450.526 98.164V98.267C450.526 98.45 450.595 98.633 450.732 98.8161C450.87 98.9762 451.03 99.1249 451.213 99.2622C451.396 99.3766 451.59 99.4566 451.796 99.5024C452.025 99.5482 452.219 99.5482 452.379 99.5024C452.837 99.9142 453.363 100.246 453.958 100.498C454.553 100.749 455.171 100.978 455.811 101.184C456.452 101.39 457.081 101.607 457.699 101.836C458.316 102.065 458.888 102.351 459.414 102.694H460.238C460.764 103.151 461.382 103.495 462.091 103.723C462.823 103.952 463.521 104.158 464.185 104.341C464.459 104.593 464.802 104.787 465.214 104.924C465.649 105.039 466.061 105.096 466.449 105.096H466.655C466.747 105.096 466.827 105.085 466.896 105.062V105.13C466.896 105.245 466.93 105.325 466.999 105.371C467.067 105.393 467.136 105.416 467.204 105.439C467.296 105.439 467.376 105.462 467.445 105.508C467.536 105.531 467.605 105.577 467.651 105.645H467.994C468.474 105.645 468.932 105.748 469.366 105.954C469.801 106.137 470.259 106.229 470.739 106.229C470.945 106.229 471.105 106.206 471.22 106.16C471.357 106.206 471.46 106.297 471.528 106.434C471.597 106.572 471.689 106.686 471.803 106.778C471.963 106.755 472.112 106.732 472.249 106.709C472.386 106.709 472.524 106.709 472.661 106.709C473.164 106.709 473.633 106.766 474.068 106.881C474.502 106.995 474.949 107.167 475.406 107.395C476.138 107.075 476.859 106.812 477.568 106.606C478.277 106.4 479.032 106.297 479.833 106.297V106.366C479.833 106.64 479.902 106.892 480.039 107.121C480.199 107.372 480.336 107.624 480.451 107.876ZM467.307 80.4908C467.307 80.2163 467.25 79.9989 467.136 79.8388C467.044 79.6786 466.918 79.5414 466.758 79.427C466.598 79.2897 466.427 79.1639 466.244 79.0495C466.083 78.9351 465.935 78.7864 465.797 78.6034C465.203 78.4203 464.619 78.2144 464.047 77.9857C463.475 77.7569 462.892 77.5624 462.297 77.4023C462 77.3336 461.702 77.2764 461.405 77.2307C461.107 77.162 460.81 77.1277 460.513 77.1277H459.758C459.62 77.1049 459.472 77.082 459.312 77.0591C459.174 77.0133 459.037 76.979 458.9 76.9561C458.579 76.9104 458.259 76.8761 457.939 76.8532C457.641 76.8303 457.333 76.8189 457.012 76.8189C456.417 76.8189 455.823 76.8418 455.228 76.8875L453.443 77.0248C453.192 77.0477 452.929 77.0591 452.654 77.0591C452.379 77.0591 452.128 77.082 451.899 77.1277C451.785 77.1506 451.625 77.2078 451.419 77.2993C451.213 77.368 450.995 77.448 450.767 77.5395C450.538 77.6082 450.309 77.6882 450.08 77.7798C449.874 77.8713 449.691 77.9399 449.531 77.9857C449.554 78.1458 449.565 78.3059 449.565 78.4661V78.9122C449.565 79.2554 449.554 79.5986 449.531 79.9417C449.508 80.2849 449.463 80.6281 449.394 80.9712C449.371 81.1085 449.337 81.2458 449.291 81.383C449.245 81.5203 449.211 81.6576 449.188 81.7948C449.142 82.0007 449.119 82.2295 449.119 82.4812V83.1332C449.074 83.6594 449.039 84.1742 449.016 84.6775C448.994 85.1808 448.959 85.6955 448.913 86.2217C448.776 87.7317 448.627 89.2302 448.467 90.7173C448.33 92.2043 448.239 93.7028 448.193 95.2128C448.948 95.0526 449.668 94.8124 450.355 94.4921C451.041 94.1718 451.716 93.8287 452.379 93.4626C453.043 93.0737 453.706 92.6962 454.37 92.3302C455.033 91.9641 455.731 91.6553 456.463 91.4036C456.646 91.1519 456.864 90.946 457.115 90.7859C457.39 90.6257 457.619 90.4198 457.802 90.1682C458.03 90.1682 458.202 90.1224 458.316 90.0309C458.431 89.9165 458.579 89.8365 458.762 89.7907C459.861 88.8298 460.982 87.9261 462.126 87.0797C463.269 86.2332 464.368 85.3295 465.42 84.3686C465.511 84.0483 465.66 83.7395 465.866 83.4421C466.095 83.1218 466.312 82.8015 466.518 82.4812C466.724 82.1609 466.907 81.8406 467.067 81.5203C467.227 81.2 467.307 80.8568 467.307 80.4908ZM502.311 105.199C502.311 105.428 502.299 105.599 502.276 105.714C502.162 105.76 502.07 105.828 502.002 105.92C501.933 105.988 501.819 106.011 501.659 105.988C501.613 106.331 501.499 106.617 501.315 106.846C501.132 107.075 500.938 107.281 500.732 107.464C500.549 107.67 500.366 107.876 500.183 108.082C500 108.31 499.886 108.596 499.84 108.94C499.497 109.123 499.154 109.363 498.81 109.66C498.49 109.981 498.204 110.198 497.952 110.312C497.769 110.404 497.575 110.472 497.369 110.518C497.163 110.587 496.957 110.667 496.751 110.758C496.088 111.056 495.402 111.365 494.692 111.685C494.006 112.005 493.285 112.165 492.53 112.165H492.29C492.199 112.257 492.084 112.314 491.947 112.337C491.81 112.383 491.672 112.417 491.535 112.44C491.398 112.463 491.261 112.497 491.123 112.543C490.986 112.589 490.883 112.657 490.814 112.749C490.563 112.657 490.288 112.611 489.991 112.611H489.751C489.362 112.703 488.996 112.772 488.653 112.817C488.309 112.863 487.943 112.886 487.554 112.886C486.868 112.886 486.182 112.84 485.495 112.749C484.809 112.657 484.123 112.577 483.436 112.509C483.002 112.165 482.647 111.731 482.373 111.204C482.098 110.701 481.961 110.164 481.961 109.592C481.961 109.157 482.052 108.745 482.235 108.356C482.418 107.99 482.658 107.658 482.956 107.361H483.059C483.265 107.361 483.471 107.315 483.677 107.224C483.905 107.132 484.123 107.086 484.329 107.086C484.557 107.086 484.74 107.178 484.878 107.361C485.038 107.544 485.152 107.761 485.221 108.013C485.312 108.265 485.37 108.516 485.392 108.768C485.415 109.043 485.427 109.26 485.427 109.42C485.678 109.534 485.941 109.603 486.216 109.626C486.513 109.649 486.811 109.66 487.108 109.66C487.406 109.66 487.737 109.637 488.103 109.592C488.47 109.569 488.836 109.512 489.202 109.42C489.591 109.351 489.957 109.26 490.3 109.145C490.666 109.031 490.975 108.882 491.226 108.699C492.485 108.585 493.594 108.299 494.555 107.841C495.516 107.384 496.534 106.846 497.609 106.229C497.655 105.977 497.747 105.782 497.884 105.645C498.044 105.485 498.124 105.256 498.124 104.959C498.124 104.913 498.113 104.867 498.09 104.822C498.09 104.753 498.09 104.696 498.09 104.65C497.632 104.078 497.152 103.575 496.648 103.14C496.168 102.705 495.539 102.419 494.761 102.282C494.669 102.076 494.521 101.927 494.315 101.836C494.109 101.722 493.892 101.619 493.663 101.527C493.434 101.436 493.217 101.344 493.011 101.253C492.805 101.138 492.656 100.955 492.565 100.703C491.947 100.589 491.306 100.452 490.643 100.292C490.002 100.109 489.453 99.7884 488.996 99.3308C488.63 99.3079 488.275 99.2393 487.932 99.1249C487.612 98.9876 487.291 98.8618 486.971 98.7474C486.651 98.6102 486.319 98.4958 485.976 98.4043C485.633 98.2899 485.278 98.2327 484.912 98.2327C484.82 98.0725 484.695 97.9467 484.534 97.8552C484.374 97.7637 484.191 97.6836 483.985 97.615C483.802 97.5463 483.619 97.4777 483.436 97.4091C483.276 97.3176 483.15 97.1917 483.059 97.0316C482.967 97.0545 482.899 97.1002 482.853 97.1688C482.807 97.2375 482.727 97.2718 482.613 97.2718H482.475C482.43 97.1345 482.338 97.043 482.201 96.9973C482.064 96.9286 481.984 96.8028 481.961 96.6198C481.549 96.5969 481.171 96.5168 480.828 96.3796C480.508 96.2423 480.199 96.0936 479.902 95.9334C479.627 95.7504 479.341 95.5788 479.044 95.4187C478.746 95.2585 478.415 95.1327 478.049 95.0412C477.82 94.8582 477.602 94.6637 477.397 94.4578C477.214 94.229 476.973 94.1146 476.676 94.1146C476.607 94.1146 476.481 94.1375 476.298 94.1833C476.253 93.7715 476.081 93.4855 475.784 93.3253C475.486 93.1423 475.166 92.9822 474.823 92.8449C474.594 92.2501 474.285 91.7239 473.896 91.2663C473.507 90.8088 473.084 90.3855 472.626 89.9966C472.672 89.8593 472.695 89.7564 472.695 89.6877C472.695 89.459 472.638 89.2645 472.524 89.1044C472.409 88.9213 472.283 88.7726 472.146 88.6582C471.826 87.6287 471.666 86.6221 471.666 85.6383C471.666 84.2657 471.974 82.9959 472.592 81.8292C473.187 80.6395 474.136 79.7473 475.44 79.1524C475.463 78.9694 475.521 78.8093 475.612 78.672C475.726 78.5347 475.795 78.3746 475.818 78.1916C476.024 78.1916 476.184 78.1458 476.298 78.0543C476.413 77.9628 476.516 77.8713 476.607 77.7798C476.722 77.6654 476.836 77.5624 476.95 77.4709C477.065 77.3794 477.214 77.3222 477.397 77.2993C478.266 76.5443 479.192 75.9381 480.176 75.4805C481.16 75.0001 482.167 74.5082 483.196 74.0049C483.402 73.9134 483.574 73.7418 483.711 73.4901H483.917C484.146 73.4901 484.317 73.4444 484.432 73.3529C484.569 73.2385 484.763 73.2042 485.015 73.2499C485.106 73.1126 485.221 73.0211 485.358 72.9754C485.518 72.9296 485.667 72.8953 485.804 72.8724C485.964 72.8267 486.113 72.7695 486.25 72.7008C486.388 72.6322 486.479 72.5293 486.525 72.392H486.765C487.154 72.392 487.532 72.3348 487.898 72.2204C488.264 72.0831 488.63 71.9344 488.996 71.7743H489.236C489.693 71.7743 490.117 71.6942 490.506 71.5341C490.917 71.351 491.352 71.2252 491.81 71.1566C491.993 71.1108 492.176 71.0994 492.359 71.1223C492.542 71.1451 492.725 71.1566 492.908 71.1566C493.022 71.1566 493.159 71.1451 493.32 71.1223C493.48 71.0994 493.594 71.0307 493.663 70.9164H493.731C493.869 70.9164 493.949 70.9621 493.972 71.0536C493.995 71.1451 494.063 71.1909 494.178 71.1909C494.338 71.1909 494.498 71.168 494.658 71.1223C494.818 71.0765 494.978 71.0536 495.138 71.0536C495.825 71.0536 496.5 71.1223 497.163 71.2595C497.849 71.3968 498.524 71.5226 499.188 71.637C499.234 71.9116 499.348 72.106 499.531 72.2204C499.737 72.3348 499.954 72.4377 500.183 72.5293V72.6665C500.183 72.8495 500.229 72.9983 500.32 73.1126C500.229 73.4329 500.069 73.6732 499.84 73.8333C499.611 73.9934 499.359 74.1307 499.085 74.2451C499.199 74.3366 499.268 74.4624 499.291 74.6226C499.314 74.7827 499.325 74.9314 499.325 75.0687V75.4805L499.154 75.4462C498.787 75.4462 498.604 75.6178 498.604 75.961C498.307 75.7779 497.975 75.6635 497.609 75.6178C497.266 75.572 496.923 75.5492 496.58 75.5492C496.122 75.5492 495.642 75.572 495.138 75.6178C494.635 75.6407 494.143 75.6292 493.663 75.5835C493.48 75.8122 493.251 75.9838 492.976 76.0982C492.702 76.1897 492.427 76.2355 492.153 76.2355C491.855 76.2355 491.569 76.1783 491.295 76.0639C491.02 75.9266 490.826 75.7322 490.712 75.4805C490.597 75.4348 490.494 75.4119 490.403 75.4119H490.094C489.728 75.4119 489.362 75.4576 488.996 75.5492C488.653 75.6178 488.298 75.7093 487.932 75.8237C487.566 75.9152 487.2 76.0182 486.834 76.1325C486.491 76.2241 486.136 76.2812 485.77 76.3041C485.633 76.4871 485.45 76.613 485.221 76.6816C484.992 76.7502 484.809 76.8761 484.672 77.0591C484.191 77.1506 483.757 77.3108 483.368 77.5395C482.979 77.7454 482.601 77.9742 482.235 78.2259L481.171 78.9465C480.828 79.1753 480.439 79.3698 480.005 79.5299C479.684 79.8731 479.387 80.1476 479.112 80.3535C478.838 80.5594 478.483 80.7425 478.049 80.9026C477.774 80.9941 477.614 81.1314 477.568 81.3144C477.545 81.4974 477.454 81.6805 477.294 81.8635C477.156 82.0236 476.985 82.1495 476.779 82.241C476.596 82.3096 476.436 82.4354 476.298 82.6184C476.184 82.7786 476.093 82.9731 476.024 83.2018C475.978 83.4077 475.921 83.6136 475.852 83.8195C475.784 84.0254 475.704 84.2313 475.612 84.4372C475.521 84.6203 475.383 84.7804 475.2 84.9177C475.2 85.0092 475.189 85.1007 475.166 85.1922C475.166 85.2837 475.166 85.3638 475.166 85.4324C475.166 85.7527 475.2 86.0845 475.269 86.4276C475.36 86.7479 475.418 87.0682 475.44 87.3885C475.898 88.1892 476.436 88.9213 477.053 89.5848C477.671 90.2254 478.335 90.8202 479.044 91.3693C479.753 91.9184 480.485 92.4331 481.24 92.9135C482.018 93.394 482.784 93.863 483.539 94.3205C483.814 94.2977 484.065 94.332 484.294 94.4235C484.523 94.4921 484.763 94.5379 485.015 94.5608C485.289 94.7667 485.61 94.9268 485.976 95.0412L487.074 95.3844C487.44 95.4988 487.795 95.636 488.138 95.7962C488.481 95.9334 488.767 96.1279 488.996 96.3796C489.11 96.4024 489.213 96.4368 489.305 96.4825C489.396 96.5054 489.499 96.5168 489.613 96.5168C489.751 96.5168 489.831 96.4711 489.854 96.3796C490.883 96.7685 491.89 97.2032 492.874 97.6836C493.857 98.1412 494.898 98.4958 495.996 98.7474C496.431 99.1135 496.911 99.4338 497.438 99.7083C497.964 99.9828 498.49 100.269 499.016 100.566C499.542 100.841 500.046 101.15 500.526 101.493C501.007 101.813 501.43 102.202 501.796 102.66C501.842 103.094 501.933 103.517 502.07 103.929C502.231 104.318 502.311 104.741 502.311 105.199Z" fill="#202020"/>
<path d="M59.5169 98.4805C60.7334 95.9909 61.9782 93.4024 63.2513 90.7148C64.5243 87.9989 65.755 85.3113 66.9431 82.6521C69.6307 76.7677 71.9364 71.5057 73.8601 66.8661C75.5575 67.0641 77.6227 67.1773 80.0557 67.2056C82.517 67.2338 84.4548 67.1207 85.8694 66.8661C88.0477 72.0715 90.3817 77.3335 92.8712 82.6521C94.8798 87.0936 97.3552 92.3698 100.297 98.4805H91.5981C90.806 96.0758 89.6603 93.0629 88.1609 89.4417C86.7464 85.9054 85.2894 82.4682 83.79 79.1299C82.2906 75.7634 80.8761 72.8919 79.5465 70.5155H79.8435C79.2211 71.5905 77.0852 76.3575 73.4358 84.8163C72.4739 87.1644 71.512 89.4983 70.5502 91.8181C69.6166 94.1379 68.7113 96.3587 67.8343 98.4805H59.5169ZM71.4837 87.4473C74.0016 87.5321 76.8023 87.5746 79.886 87.5746C82.9979 87.5746 85.8269 87.5321 88.373 87.4473L89.7734 91.8605C86.8312 91.7757 83.4647 91.7332 79.6738 91.7332C75.9112 91.7332 72.5588 91.7757 69.6166 91.8605L71.4837 87.4473Z" fill="#202020"/>
<path d="M65.3466 124.525C64.149 124.525 63.0886 124.309 62.1652 123.876C61.2418 123.443 60.5059 122.83 59.9577 122.036C59.4238 121.228 59.1353 120.29 59.092 119.223L62.0353 118.703C62.0642 119.699 62.396 120.507 63.0309 121.127C63.6801 121.733 64.4881 122.036 65.4548 122.036C66.2628 122.036 66.9048 121.841 67.3809 121.452C67.8715 121.048 68.1168 120.543 68.1168 119.937C68.1168 119.446 67.9364 119.042 67.5757 118.725C67.215 118.393 66.6379 118.112 65.8443 117.881L63.7234 117.275C62.3094 116.9 61.2778 116.366 60.6286 115.673C59.9937 114.966 59.6763 114.043 59.6763 112.903C59.6763 111.98 59.8855 111.165 60.3039 110.458C60.7368 109.751 61.3572 109.202 62.1652 108.813C62.9731 108.409 63.9182 108.207 65.0003 108.207C65.9958 108.207 66.8832 108.394 67.6623 108.769C68.4558 109.145 69.0834 109.678 69.5451 110.371C70.0213 111.049 70.2882 111.835 70.3459 112.73L67.4675 113.336C67.4386 112.542 67.1862 111.9 66.71 111.41C66.2483 110.919 65.664 110.674 64.957 110.674C64.2789 110.674 63.7306 110.862 63.3122 111.237C62.9082 111.597 62.7062 112.059 62.7062 112.622C62.7062 113.127 62.8721 113.545 63.204 113.877C63.5503 114.194 64.0985 114.454 64.8488 114.656L66.9481 115.24C68.4053 115.616 69.473 116.157 70.1511 116.864C70.8292 117.571 71.1683 118.501 71.1683 119.655C71.1683 120.608 70.9302 121.452 70.4541 122.188C69.9924 122.923 69.3215 123.501 68.4414 123.919C67.5613 124.323 66.5297 124.525 65.3466 124.525ZM72.0345 108.683H75.1943V124.049H72.0345V108.683ZM76.8651 108.683H82.4488C84.8871 108.683 86.7628 109.347 88.0757 110.674C89.3887 112.001 90.0452 113.899 90.0452 116.366C90.0452 118.833 89.3887 120.73 88.0757 122.058C86.7628 123.385 84.8871 124.049 82.4488 124.049H76.8651V108.683ZM82.4271 121.452C83.87 121.452 84.9737 121.019 85.7384 120.153C86.5175 119.273 86.9071 118.011 86.9071 116.366C86.9071 114.721 86.5175 113.459 85.7384 112.578C84.9737 111.698 83.87 111.258 82.4271 111.258H79.9599V121.452H82.4271ZM91.1853 108.683H100.686V111.258H94.2368V115.002H99.8205V117.318H94.2368V121.452H100.903V124.049H91.1853V108.683Z" fill="#202020"/>
<path d="M709.115 66.0449C714.355 66.0449 718.605 70.2942 718.605 75.5352V115.865C718.605 121.106 714.355 125.354 709.115 125.354H668.783C663.542 125.354 659.294 121.106 659.294 115.865V75.5352C659.294 70.2942 663.542 66.0449 668.783 66.0449H709.115ZM686.442 78.9277C685.986 80.1433 685.251 81.1947 684.238 82.0811C683.225 82.9419 681.984 83.5871 680.515 84.0176L682.225 88.6152C684.023 87.9061 685.276 86.9559 685.986 85.7656H686.024V101.455H680.363V105.9H696.015V101.455H691.456V78.9277H686.442Z" fill="#261D1E"/>
<path d="M539.574 171.652C562.765 171.652 581.566 190.452 581.566 213.644C581.566 236.835 562.765 255.636 539.574 255.636C516.383 255.636 497.583 236.835 497.583 213.644C497.583 190.453 516.383 171.653 539.574 171.652ZM539.332 182.328C535.029 182.328 530.929 183.196 527.197 184.766L530.971 191.303L524.181 195.223L520.41 188.69C513.862 193.663 509.332 201.153 508.26 209.719H515.812V217.559H508.259C509.326 226.122 513.853 233.61 520.395 238.585L524.17 232.049L530.959 235.969L527.179 242.514C530.916 244.088 535.022 244.96 539.332 244.96C543.635 244.96 547.735 244.091 551.467 242.521L547.694 235.985L554.483 232.065L558.253 238.596C564.803 233.621 569.335 226.128 570.404 217.559H562.851V209.719H570.402C569.331 201.158 564.805 193.672 558.263 188.699L554.494 195.229L547.705 191.309L551.478 184.771C547.743 183.198 543.639 182.328 539.332 182.328Z" fill="#202020"/>
<path d="M229.175 171.652C252.366 171.652 271.166 190.452 271.166 213.644C271.166 236.835 252.366 255.636 229.175 255.636C205.984 255.636 187.183 236.835 187.183 213.644C187.183 190.452 205.984 171.652 229.175 171.652ZM228.933 182.328C224.63 182.328 220.53 183.196 216.798 184.766L220.573 191.303L213.783 195.223L210.012 188.69C203.464 193.663 198.933 201.153 197.862 209.719H205.413V217.559H197.86C198.928 226.122 203.454 233.61 209.996 238.585L213.771 232.049L220.561 235.969L216.781 242.515C220.518 244.089 224.624 244.96 228.933 244.96C233.236 244.96 237.336 244.091 241.068 242.521L237.295 235.985L244.085 232.065L247.855 238.596C254.405 233.621 258.937 226.128 260.006 217.559H252.453V209.719H260.004C258.934 201.158 254.407 193.672 247.865 188.699L244.096 195.229L237.306 191.309L241.079 184.771C237.344 183.198 233.24 182.328 228.933 182.328Z" fill="#202020"/>
</g>
<defs>
<clipPath id="clip0_291_534008">
<rect width="768.66" height="471.16" fill="white"/>
</clipPath>
<clipPath id="clip1_291_534008">
<rect width="25.622" height="25.622" fill="white" transform="translate(19.2158 19.2148)"/>
</clipPath>
<clipPath id="clip2_291_534008">
<rect width="25.622" height="25.622" fill="white" transform="translate(723.707 19.2148)"/>
</clipPath>
</defs>
</svg>
